{
	"asset":{
		"generator":"Khronos glTF Blender I/O v3.6.27",
		"version":"2.0"
	},
	"extensionsUsed":[
		"KHR_materials_unlit"
	],
	"scene":0,
	"scenes":[
		{
			"extras":{
				"skinify":{
					"connect_mesh":0,
					"connect_parents":0,
					"generate_all":0,
					"thickness":0.800000011920929,
					"finger_thickness":0.25,
					"apply_mod":1,
					"parent_armature":1,
					"sub_level":1
				},
				"wiggle":{
					"is_rendering":0
				},
				"ypui":{
					"expand_channels":0,
					"expand_mask_channels":0,
					"show_channels":1,
					"show_layers":1,
					"show_materials":0,
					"show_object":0,
					"show_stats":0,
					"show_support":0,
					"tree_name":""
				},
				"yp":{
					"last_object":"Awning",
					"last_mode":"OBJECT",
					"edit_image_editor_area_index":-1
				},
				"qremesher":{},
				"uuid":"ffd54485-0daa-4be5-b4e5-8606de04d0df",
				"assets reported":{},
				"muv_pack_uv_enabled":1,
				"muv_smooth_uv_enabled":0,
				"muv_smooth_uv_mesh_infl":0.23999999463558197,
				"muv_smooth_uv_transmission":1,
				"muv_align_uv_enabled":1,
				"muv_smooth_uv_select":1,
				"muv_select_uv_enabled":1
			},
			"name":"Scene",
			"nodes":[
				0
			]
		}
	],
	"nodes":[
		{
			"mesh":0,
			"name":"Awning"
		}
	],
	"materials":[
		{
			"doubleSided":true,
			"extensions":{
				"KHR_materials_unlit":{}
			},
			"extras":{
				"yp":{
					"active_ypaint_node":""
				}
			},
			"name":"ModernLight",
			"pbrMetallicRoughness":{
				"metallicFactor":0,
				"roughnessFactor":0.9
			}
		}
	],
	"meshes":[
		{
			"name":"Cylinder.003",
			"primitives":[
				{
					"attributes":{
						"POSITION":0,
						"NORMAL":1,
						"TEXCOORD_0":2,
						"TANGENT":3
					},
					"indices":4,
					"material":0
				}
			]
		}
	],
	"accessors":[
		{
			"bufferView":0,
			"componentType":5126,
			"count":458,
			"max":[
				1.6216511726379395,
				0.5838686227798462,
				1.3260843753814697
			],
			"min":[
				-1.6216511726379395,
				-0.27361631393432617,
				-0.06620028614997864
			],
			"type":"VEC3"
		},
		{
			"bufferView":1,
			"componentType":5126,
			"count":458,
			"type":"VEC3"
		},
		{
			"bufferView":2,
			"componentType":5126,
			"count":458,
			"type":"VEC2"
		},
		{
			"bufferView":3,
			"componentType":5126,
			"count":458,
			"type":"VEC4"
		},
		{
			"bufferView":4,
			"componentType":5123,
			"count":1080,
			"type":"SCALAR"
		}
	],
	"bufferViews":[
		{
			"buffer":0,
			"byteLength":5496,
			"byteOffset":0,
			"target":34962
		},
		{
			"buffer":0,
			"byteLength":5496,
			"byteOffset":5496,
			"target":34962
		},
		{
			"buffer":0,
			"byteLength":3664,
			"byteOffset":10992,
			"target":34962
		},
		{
			"buffer":0,
			"byteLength":7328,
			"byteOffset":14656,
			"target":34962
		},
		{
			"buffer":0,
			"byteLength":2160,
			"byteOffset":21984,
			"target":34963
		}
	],
	"buffers":[
		{
			"byteLength":24144,
			"uri":"Awning_No_Text-6a485b04e87dcffe66f0d148f4a2b467.bin"
		}
	]
}
