{
    "asset" : {
        "generator" : "Khronos glTF Blender I/O v3.3.27",
        "version" : "2.0"
    },
    "extensionsUsed" : [
        "KHR_materials_clearcoat",
        "KHR_materials_transmission",
        "KHR_materials_specular",
        "KHR_materials_ior"
    ],
    "scene" : 0,
    "scenes" : [
        {
            "name" : "Scene",
            "nodes" : [
                0
            ]
        }
    ],
    "nodes" : [
        {
            "mesh" : 0,
            "name" : "Cube",
            "scale" : [
                0.36000001430511475,
                1,
                0.5
            ]
        }
    ],
    "materials" : [
        {
            "doubleSided" : true,
            "emissiveFactor" : [
                0.004674624651670456,
                0.011087140068411827,
                0.003934440203011036
            ],
            "extensions" : {
                "KHR_materials_clearcoat" : {
                    "clearcoatFactor" : 1,
                    "clearcoatRoughnessFactor" : 0.13236220180988312
                },
                "KHR_materials_transmission" : {
                    "transmissionFactor" : 0.4881889820098877
                },
                "KHR_materials_specular" : {
                    "specularColorFactor" : [
                        1.7018759366757439,
                        1.7018759366757439,
                        1.7018759366757439
                    ]
                },
                "KHR_materials_ior" : {
                    "ior" : 1.4500000476837158
                }
            },
            "name" : "bottle_glass",
            "pbrMetallicRoughness" : {
                "baseColorFactor" : [
                    0.04739956557750702,
                    0.21264132857322693,
                    0.04256207495927811,
                    1
                ],
                "metallicFactor" : 0.25984251499176025,
                "roughnessFactor" : 0.07480313628911972
            }
        },
        {
            "doubleSided" : true,
            "extensions" : {
                "KHR_materials_clearcoat" : {
                    "clearcoatFactor" : 0.08661416172981262,
                    "clearcoatRoughnessFactor" : 0.82677161693573
                },
                "KHR_materials_specular" : {
                    "specularColorFactor" : [
                        0.17738500449129274,
                        0.17738500449129274,
                        0.17738500449129274
                    ]
                },
                "KHR_materials_ior" : {
                    "ior" : 1.4500000476837158
                }
            },
            "name" : "paper",
            "pbrMetallicRoughness" : {
                "baseColorFactor" : [
                    0.44520077109336853,
                    0.46778345108032227,
                    0.2874408960342407,
                    1
                ],
                "metallicFactor" : 0
            }
        },
        {
            "doubleSided" : true,
            "emissiveFactor" : [
                0.020377619192004204,
                0.01625170186161995,
                0.0038988024462014437
            ],
            "extensions" : {
                "KHR_materials_clearcoat" : {
                    "clearcoatFactor" : 0.6220472455024719,
                    "clearcoatRoughnessFactor" : 0.18110233545303345
                },
                "KHR_materials_specular" : {
                    "specularColorFactor" : [
                        0.7809415275239419,
                        0.7809415275239419,
                        0.7809415275239419
                    ]
                },
                "KHR_materials_ior" : {
                    "ior" : 1.350000023841858
                }
            },
            "name" : "gold_paper",
            "pbrMetallicRoughness" : {
                "baseColorFactor" : [
                    0.7991026639938354,
                    0.6038269400596619,
                    0.06847836077213287,
                    1
                ],
                "metallicFactor" : 0.740157425403595,
                "roughnessFactor" : 0.31102362275123596
            }
        },
        {
            "doubleSided" : true,
            "extensions" : {
                "KHR_materials_clearcoat" : {
                    "clearcoatFactor" : 0.11023619771003723,
                    "clearcoatRoughnessFactor" : 0.8410235643386841
                },
                "KHR_materials_specular" : {
                    "specularColorFactor" : [
                        0.028008147445157148,
                        0.028008147445157148,
                        0.028008147445157148
                    ]
                },
                "KHR_materials_ior" : {
                    "ior" : 1.4500000476837158
                }
            },
            "name" : "paper_inside",
            "pbrMetallicRoughness" : {
                "baseColorFactor" : [
                    0.34093788266181946,
                    0.35883840918540955,
                    0.21589744091033936,
                    1
                ],
                "metallicFactor" : 0
            }
        }
    ],
    "meshes" : [
        {
            "name" : "Cube",
            "primitives" : [
                {
                    "attributes" : {
                        "POSITION" : 0,
                        "NORMAL" : 1,
                        "TANGENT" : 2,
                        "TEXCOORD_0" : 3
                    },
                    "indices" : 4,
                    "material" : 0
                },
                {
                    "attributes" : {
                        "POSITION" : 5,
                        "NORMAL" : 6,
                        "TANGENT" : 7,
                        "TEXCOORD_0" : 8
                    },
                    "indices" : 9,
                    "material" : 1
                },
                {
                    "attributes" : {
                        "POSITION" : 10,
                        "NORMAL" : 11,
                        "TANGENT" : 12,
                        "TEXCOORD_0" : 13
                    },
                    "indices" : 14,
                    "material" : 2
                },
                {
                    "attributes" : {
                        "POSITION" : 15,
                        "NORMAL" : 16,
                        "TANGENT" : 17,
                        "TEXCOORD_0" : 18
                    },
                    "indices" : 19,
                    "material" : 3
                }
            ]
        }
    ],
    "accessors" : [
        {
            "bufferView" : 0,
            "componentType" : 5126,
            "count" : 232,
            "max" : [
                0.43348294496536255,
                0.8304049372673035,
                0.42054474353790283
            ],
            "min" : [
                -0.43466877937316895,
                0.003996908664703369,
                -0.444172203540802
            ],
            "type" : "VEC3"
        },
        {
            "bufferView" : 1,
            "componentType" : 5126,
            "count" : 232,
            "type" : "VEC3"
        },
        {
            "bufferView" : 2,
            "componentType" : 5126,
            "count" : 232,
            "type" : "VEC4"
        },
        {
            "bufferView" : 3,
            "componentType" : 5126,
            "count" : 232,
            "type" : "VEC2"
        },
        {
            "bufferView" : 4,
            "componentType" : 5123,
            "count" : 918,
            "type" : "SCALAR"
        },
        {
            "bufferView" : 5,
            "componentType" : 5126,
            "count" : 43,
            "max" : [
                0.312543660402298,
                1.2235190868377686,
                0.17512120306491852
            ],
            "min" : [
                -0.3137296438217163,
                0.7905300259590149,
                -0.29012131690979004
            ],
            "type" : "VEC3"
        },
        {
            "bufferView" : 6,
            "componentType" : 5126,
            "count" : 43,
            "type" : "VEC3"
        },
        {
            "bufferView" : 7,
            "componentType" : 5126,
            "count" : 43,
            "type" : "VEC4"
        },
        {
            "bufferView" : 8,
            "componentType" : 5126,
            "count" : 43,
            "type" : "VEC2"
        },
        {
            "bufferView" : 9,
            "componentType" : 5123,
            "count" : 111,
            "type" : "SCALAR"
        },
        {
            "bufferView" : 10,
            "componentType" : 5126,
            "count" : 39,
            "max" : [
                0.4469073414802551,
                0.4814838767051697,
                0.4300540089607239
            ],
            "min" : [
                -0.4480931758880615,
                0.3453070819377899,
                -0.45368140935897827
            ],
            "type" : "VEC3"
        },
        {
            "bufferView" : 11,
            "componentType" : 5126,
            "count" : 39,
            "type" : "VEC3"
        },
        {
            "bufferView" : 12,
            "componentType" : 5126,
            "count" : 39,
            "type" : "VEC4"
        },
        {
            "bufferView" : 13,
            "componentType" : 5126,
            "count" : 39,
            "type" : "VEC2"
        },
        {
            "bufferView" : 14,
            "componentType" : 5123,
            "count" : 144,
            "type" : "SCALAR"
        },
        {
            "bufferView" : 15,
            "componentType" : 5126,
            "count" : 46,
            "max" : [
                0.312543660402298,
                1.2235190868377686,
                0.17512120306491852
            ],
            "min" : [
                -0.3137296438217163,
                0.7905300259590149,
                -0.29012131690979004
            ],
            "type" : "VEC3"
        },
        {
            "bufferView" : 16,
            "componentType" : 5126,
            "count" : 46,
            "type" : "VEC3"
        },
        {
            "bufferView" : 17,
            "componentType" : 5126,
            "count" : 46,
            "type" : "VEC4"
        },
        {
            "bufferView" : 18,
            "componentType" : 5126,
            "count" : 46,
            "type" : "VEC2"
        },
        {
            "bufferView" : 19,
            "componentType" : 5123,
            "count" : 141,
            "type" : "SCALAR"
        }
    ],
    "bufferViews" : [
        {
            "buffer" : 0,
            "byteLength" : 2784,
            "byteOffset" : 0,
            "target" : 34962
        },
        {
            "buffer" : 0,
            "byteLength" : 2784,
            "byteOffset" : 2784,
            "target" : 34962
        },
        {
            "buffer" : 0,
            "byteLength" : 3712,
            "byteOffset" : 5568,
            "target" : 34962
        },
        {
            "buffer" : 0,
            "byteLength" : 1856,
            "byteOffset" : 9280,
            "target" : 34962
        },
        {
            "buffer" : 0,
            "byteLength" : 1836,
            "byteOffset" : 11136,
            "target" : 34963
        },
        {
            "buffer" : 0,
            "byteLength" : 516,
            "byteOffset" : 12972,
            "target" : 34962
        },
        {
            "buffer" : 0,
            "byteLength" : 516,
            "byteOffset" : 13488,
            "target" : 34962
        },
        {
            "buffer" : 0,
            "byteLength" : 688,
            "byteOffset" : 14004,
            "target" : 34962
        },
        {
            "buffer" : 0,
            "byteLength" : 344,
            "byteOffset" : 14692,
            "target" : 34962
        },
        {
            "buffer" : 0,
            "byteLength" : 222,
            "byteOffset" : 15036,
            "target" : 34963
        },
        {
            "buffer" : 0,
            "byteLength" : 468,
            "byteOffset" : 15260,
            "target" : 34962
        },
        {
            "buffer" : 0,
            "byteLength" : 468,
            "byteOffset" : 15728,
            "target" : 34962
        },
        {
            "buffer" : 0,
            "byteLength" : 624,
            "byteOffset" : 16196,
            "target" : 34962
        },
        {
            "buffer" : 0,
            "byteLength" : 312,
            "byteOffset" : 16820,
            "target" : 34962
        },
        {
            "buffer" : 0,
            "byteLength" : 288,
            "byteOffset" : 17132,
            "target" : 34963
        },
        {
            "buffer" : 0,
            "byteLength" : 552,
            "byteOffset" : 17420,
            "target" : 34962
        },
        {
            "buffer" : 0,
            "byteLength" : 552,
            "byteOffset" : 17972,
            "target" : 34962
        },
        {
            "buffer" : 0,
            "byteLength" : 736,
            "byteOffset" : 18524,
            "target" : 34962
        },
        {
            "buffer" : 0,
            "byteLength" : 368,
            "byteOffset" : 19260,
            "target" : 34962
        },
        {
            "buffer" : 0,
            "byteLength" : 282,
            "byteOffset" : 19628,
            "target" : 34963
        }
    ],
    "buffers" : [
        {
            "byteLength" : 19912,
            "uri" : "bottle-e5933cbce7ef2ed4e2dd61611f0e4b43.bin"
        }
    ]
}
