{
	"asset":{
		"generator":"Khronos glTF Blender I/O v3.6.27",
		"version":"2.0"
	},
	"extensionsUsed":[
		"KHR_materials_unlit"
	],
	"scene":0,
	"scenes":[
		{
			"extras":{
				"skinify":{
					"connect_mesh":0,
					"connect_parents":0,
					"generate_all":0,
					"thickness":0.800000011920929,
					"finger_thickness":0.25,
					"apply_mod":1,
					"parent_armature":1,
					"sub_level":1
				},
				"wiggle":{
					"is_rendering":0
				},
				"ypui":{
					"expand_channels":0,
					"expand_mask_channels":0,
					"show_channels":1,
					"show_layers":1,
					"show_materials":0,
					"show_object":0,
					"show_stats":0,
					"show_support":0,
					"tree_name":""
				},
				"yp":{
					"last_object":"ModernHangingLamp.001",
					"last_mode":"OBJECT",
					"edit_image_editor_area_index":-1
				},
				"qremesher":{},
				"uuid":"ffd54485-0daa-4be5-b4e5-8606de04d0df",
				"assets reported":{},
				"muv_pack_uv_enabled":1,
				"muv_smooth_uv_enabled":0,
				"muv_smooth_uv_mesh_infl":0.23999999463558197,
				"muv_smooth_uv_transmission":1,
				"muv_align_uv_enabled":1,
				"muv_smooth_uv_select":1,
				"muv_select_uv_enabled":1
			},
			"name":"Scene",
			"nodes":[
				0
			]
		}
	],
	"nodes":[
		{
			"mesh":0,
			"name":"ModernHangingLamp.001"
		}
	],
	"materials":[
		{
			"doubleSided":true,
			"extensions":{
				"KHR_materials_unlit":{}
			},
			"extras":{
				"yp":{
					"active_ypaint_node":""
				}
			},
			"name":"ModernLight",
			"pbrMetallicRoughness":{
				"metallicFactor":0,
				"roughnessFactor":0.9
			}
		},
		{
			"doubleSided":true,
			"extras":{
				"yp":{
					"active_ypaint_node":""
				}
			},
			"name":"ModernLightEmissive",
			"pbrMetallicRoughness":{
				"baseColorFactor":[
					0.800000011920929,
					0.800000011920929,
					0.800000011920929,
					1
				],
				"metallicFactor":0,
				"roughnessFactor":0.5
			}
		}
	],
	"meshes":[
		{
			"name":"Cube.004",
			"primitives":[
				{
					"attributes":{
						"POSITION":0,
						"NORMAL":1,
						"TEXCOORD_0":2,
						"TANGENT":3
					},
					"indices":4,
					"material":0
				},
				{
					"attributes":{
						"POSITION":5,
						"NORMAL":6,
						"TEXCOORD_0":7,
						"TANGENT":8
					},
					"indices":9,
					"material":1
				}
			]
		}
	],
	"accessors":[
		{
			"bufferView":0,
			"componentType":5126,
			"count":289,
			"max":[
				0.9922425746917725,
				0.23797406256198883,
				0.19955098628997803
			],
			"min":[
				-0.030361780896782875,
				-0.21377411484718323,
				-0.20046216249465942
			],
			"type":"VEC3"
		},
		{
			"bufferView":1,
			"componentType":5126,
			"count":289,
			"type":"VEC3"
		},
		{
			"bufferView":2,
			"componentType":5126,
			"count":289,
			"type":"VEC2"
		},
		{
			"bufferView":3,
			"componentType":5126,
			"count":289,
			"type":"VEC4"
		},
		{
			"bufferView":4,
			"componentType":5123,
			"count":1146,
			"type":"SCALAR"
		},
		{
			"bufferView":5,
			"componentType":5126,
			"count":41,
			"max":[
				0.9437420964241028,
				-0.11988019943237305,
				0.1471949815750122
			],
			"min":[
				0.6519055962562561,
				-0.27311086654663086,
				-0.1481061577796936
			],
			"type":"VEC3"
		},
		{
			"bufferView":6,
			"componentType":5126,
			"count":41,
			"type":"VEC3"
		},
		{
			"bufferView":7,
			"componentType":5126,
			"count":41,
			"type":"VEC2"
		},
		{
			"bufferView":8,
			"componentType":5126,
			"count":41,
			"type":"VEC4"
		},
		{
			"bufferView":9,
			"componentType":5123,
			"count":216,
			"type":"SCALAR"
		}
	],
	"bufferViews":[
		{
			"buffer":0,
			"byteLength":3468,
			"byteOffset":0,
			"target":34962
		},
		{
			"buffer":0,
			"byteLength":3468,
			"byteOffset":3468,
			"target":34962
		},
		{
			"buffer":0,
			"byteLength":2312,
			"byteOffset":6936,
			"target":34962
		},
		{
			"buffer":0,
			"byteLength":4624,
			"byteOffset":9248,
			"target":34962
		},
		{
			"buffer":0,
			"byteLength":2292,
			"byteOffset":13872,
			"target":34963
		},
		{
			"buffer":0,
			"byteLength":492,
			"byteOffset":16164,
			"target":34962
		},
		{
			"buffer":0,
			"byteLength":492,
			"byteOffset":16656,
			"target":34962
		},
		{
			"buffer":0,
			"byteLength":328,
			"byteOffset":17148,
			"target":34962
		},
		{
			"buffer":0,
			"byteLength":656,
			"byteOffset":17476,
			"target":34962
		},
		{
			"buffer":0,
			"byteLength":432,
			"byteOffset":18132,
			"target":34963
		}
	],
	"buffers":[
		{
			"byteLength":18564,
			"uri":"Modern_Lamp_Hanging-c14f0bc1efb71ceba486170b2586f273.bin"
		}
	]
}
