{
	"asset":{
		"generator":"Khronos glTF Blender I/O v3.6.27",
		"version":"2.0"
	},
	"extensionsUsed":[
		"KHR_materials_unlit"
	],
	"scene":0,
	"scenes":[
		{
			"extras":{
				"skinify":{
					"connect_mesh":0,
					"connect_parents":0,
					"generate_all":0,
					"thickness":0.800000011920929,
					"finger_thickness":0.25,
					"apply_mod":1,
					"parent_armature":1,
					"sub_level":1
				},
				"wiggle":{
					"is_rendering":0
				},
				"ypui":{
					"expand_channels":0,
					"expand_mask_channels":0,
					"show_channels":1,
					"show_layers":1,
					"show_materials":0,
					"show_object":0,
					"show_stats":0,
					"show_support":0,
					"tree_name":""
				},
				"yp":{
					"last_object":"LampPostModern.001",
					"last_mode":"OBJECT",
					"edit_image_editor_area_index":-1
				},
				"qremesher":{},
				"uuid":"ffd54485-0daa-4be5-b4e5-8606de04d0df",
				"assets reported":{},
				"muv_pack_uv_enabled":1,
				"muv_smooth_uv_enabled":0,
				"muv_smooth_uv_mesh_infl":0.23999999463558197,
				"muv_smooth_uv_transmission":1,
				"muv_align_uv_enabled":1,
				"muv_smooth_uv_select":1,
				"muv_select_uv_enabled":1
			},
			"name":"Scene",
			"nodes":[
				0
			]
		}
	],
	"nodes":[
		{
			"mesh":0,
			"name":"LampPostModern.001-col",
			"scale":[
				0.1814955472946167,
				0.1814955472946167,
				0.1814955472946167
			],
			"translation":[
				0,
				0.1674622744321823,
				0
			]
		}
	],
	"materials":[
		{
			"doubleSided":true,
			"extensions":{
				"KHR_materials_unlit":{}
			},
			"extras":{
				"yp":{
					"active_ypaint_node":""
				}
			},
			"name":"ModernLight",
			"pbrMetallicRoughness":{
				"metallicFactor":0,
				"roughnessFactor":0.9
			}
		},
		{
			"doubleSided":true,
			"extras":{
				"yp":{
					"active_ypaint_node":""
				}
			},
			"name":"ModernLightEmissive",
			"pbrMetallicRoughness":{
				"baseColorFactor":[
					0.800000011920929,
					0.800000011920929,
					0.800000011920929,
					1
				],
				"metallicFactor":0,
				"roughnessFactor":0.5
			}
		}
	],
	"meshes":[
		{
			"name":"Cylinder.001",
			"primitives":[
				{
					"attributes":{
						"POSITION":0,
						"NORMAL":1,
						"TEXCOORD_0":2,
						"TANGENT":3
					},
					"indices":4,
					"material":0
				},
				{
					"attributes":{
						"POSITION":5,
						"NORMAL":6,
						"TEXCOORD_0":7,
						"TANGENT":8
					},
					"indices":9,
					"material":1
				}
			]
		}
	],
	"accessors":[
		{
			"bufferView":0,
			"componentType":5126,
			"count":664,
			"max":[
				7.652892589569092,
				39.947296142578125,
				1.4634212255477905
			],
			"min":[
				-1.2673598527908325,
				-1.1004761457443237,
				-1.4634212255477905
			],
			"type":"VEC3"
		},
		{
			"bufferView":1,
			"componentType":5126,
			"count":664,
			"type":"VEC3"
		},
		{
			"bufferView":2,
			"componentType":5126,
			"count":664,
			"type":"VEC2"
		},
		{
			"bufferView":3,
			"componentType":5126,
			"count":664,
			"type":"VEC4"
		},
		{
			"bufferView":4,
			"componentType":5123,
			"count":2586,
			"type":"SCALAR"
		},
		{
			"bufferView":5,
			"componentType":5126,
			"count":82,
			"max":[
				7.367874622344971,
				36.338623046875,
				0.8135266900062561
			],
			"min":[
				5.741492748260498,
				17.185752868652344,
				-0.8135166764259338
			],
			"type":"VEC3"
		},
		{
			"bufferView":6,
			"componentType":5126,
			"count":82,
			"type":"VEC3"
		},
		{
			"bufferView":7,
			"componentType":5126,
			"count":82,
			"type":"VEC2"
		},
		{
			"bufferView":8,
			"componentType":5126,
			"count":82,
			"type":"VEC4"
		},
		{
			"bufferView":9,
			"componentType":5123,
			"count":432,
			"type":"SCALAR"
		}
	],
	"bufferViews":[
		{
			"buffer":0,
			"byteLength":7968,
			"byteOffset":0,
			"target":34962
		},
		{
			"buffer":0,
			"byteLength":7968,
			"byteOffset":7968,
			"target":34962
		},
		{
			"buffer":0,
			"byteLength":5312,
			"byteOffset":15936,
			"target":34962
		},
		{
			"buffer":0,
			"byteLength":10624,
			"byteOffset":21248,
			"target":34962
		},
		{
			"buffer":0,
			"byteLength":5172,
			"byteOffset":31872,
			"target":34963
		},
		{
			"buffer":0,
			"byteLength":984,
			"byteOffset":37044,
			"target":34962
		},
		{
			"buffer":0,
			"byteLength":984,
			"byteOffset":38028,
			"target":34962
		},
		{
			"buffer":0,
			"byteLength":656,
			"byteOffset":39012,
			"target":34962
		},
		{
			"buffer":0,
			"byteLength":1312,
			"byteOffset":39668,
			"target":34962
		},
		{
			"buffer":0,
			"byteLength":864,
			"byteOffset":40980,
			"target":34963
		}
	],
	"buffers":[
		{
			"byteLength":41844,
			"uri":"Modern_Lamp_Post-20ef4b5ca93e33ce1bd4308a934b55d6.bin"
		}
	]
}
