{
    "asset" : {
        "generator" : "Khronos glTF Blender I/O v3.3.27",
        "version" : "2.0"
    },
    "extensionsUsed" : [
        "KHR_materials_clearcoat",
        "KHR_materials_transmission",
        "KHR_materials_specular",
        "KHR_materials_ior"
    ],
    "scene" : 0,
    "scenes" : [
        {
            "name" : "Scene",
            "nodes" : [
                0
            ]
        }
    ],
    "nodes" : [
        {
            "mesh" : 0,
            "name" : "Cube-col"
        }
    ],
    "materials" : [
        {
            "doubleSided" : true,
            "emissiveFactor" : [
                0.0536525622010231,
                0.045670147985219955,
                0.023155715316534042
            ],
            "extensions" : {
                "KHR_materials_clearcoat" : {
                    "clearcoatFactor" : 0.8661417365074158,
                    "clearcoatRoughnessFactor" : 0
                },
                "KHR_materials_transmission" : {
                    "transmissionFactor" : 0.21259844303131104
                },
                "KHR_materials_specular" : {
                    "specularColorFactor" : [
                        0.8889109833691091,
                        0.8889109833691091,
                        0.8889109833691091
                    ]
                },
                "KHR_materials_ior" : {
                    "ior" : 1.4500000476837158
                }
            },
            "name" : "Material.001",
            "pbrMetallicRoughness" : {
                "baseColorFactor" : [
                    0.05221787095069885,
                    0.05147519335150719,
                    0.042373575270175934,
                    1
                ],
                "metallicFactor" : 0.1259843111038208,
                "roughnessFactor" : 0.09055118262767792
            }
        }
    ],
    "meshes" : [
        {
            "name" : "Cube.001",
            "primitives" : [
                {
                    "attributes" : {
                        "POSITION" : 0,
                        "NORMAL" : 1,
                        "TEXCOORD_0" : 2
                    },
                    "indices" : 3,
                    "material" : 0
                }
            ]
        }
    ],
    "accessors" : [
        {
            "bufferView" : 0,
            "componentType" : 5126,
            "count" : 700,
            "max" : [
                1,
                4.04157829284668,
                1
            ],
            "min" : [
                -1,
                -1,
                -1
            ],
            "type" : "VEC3"
        },
        {
            "bufferView" : 1,
            "componentType" : 5126,
            "count" : 700,
            "type" : "VEC3"
        },
        {
            "bufferView" : 2,
            "componentType" : 5126,
            "count" : 700,
            "type" : "VEC2"
        },
        {
            "bufferView" : 3,
            "componentType" : 5123,
            "count" : 1536,
            "type" : "SCALAR"
        }
    ],
    "bufferViews" : [
        {
            "buffer" : 0,
            "byteLength" : 8400,
            "byteOffset" : 0,
            "target" : 34962
        },
        {
            "buffer" : 0,
            "byteLength" : 8400,
            "byteOffset" : 8400,
            "target" : 34962
        },
        {
            "buffer" : 0,
            "byteLength" : 5600,
            "byteOffset" : 16800,
            "target" : 34962
        },
        {
            "buffer" : 0,
            "byteLength" : 3072,
            "byteOffset" : 22400,
            "target" : 34963
        }
    ],
    "buffers" : [
        {
            "byteLength" : 25472,
            "uri" : "paris_eiffeltower-8d416647a35025cbc13a27a56d9c5384.bin"
        }
    ]
}
