{
	"asset":{
		"generator":"Khronos glTF Blender I/O v3.6.27",
		"version":"2.0"
	},
	"scene":0,
	"scenes":[
		{
			"name":"Scene",
			"nodes":[
				0
			]
		}
	],
	"nodes":[
		{
			"mesh":0,
			"name":"Cube-col",
			"scale":[
				34.43440246582031,
				1,
				118.94400787353516
			]
		}
	],
	"materials":[
		{
			"doubleSided":true,
			"name":"wall",
			"pbrMetallicRoughness":{
				"baseColorFactor":[
					0.4341508448123932,
					0.47932055592536926,
					0.47353172302246094,
					1
				],
				"metallicFactor":0
			}
		},
		{
			"doubleSided":true,
			"name":"roof",
			"pbrMetallicRoughness":{
				"baseColorFactor":[
					0.11699206382036209,
					0.13767284154891968,
					0.18446983397006989,
					1
				],
				"metallicFactor":0.023809507489204407,
				"roughnessFactor":0.841269850730896
			}
		},
		{
			"doubleSided":true,
			"name":"balcony",
			"pbrMetallicRoughness":{
				"baseColorFactor":[
					0.12656258046627045,
					0.14240095019340515,
					0.12450265884399414,
					1
				],
				"metallicFactor":0.4523809552192688,
				"roughnessFactor":0.079365074634552
			}
		},
		{
			"doubleSided":true,
			"name":"ledge",
			"pbrMetallicRoughness":{
				"baseColorFactor":[
					0.3154144287109375,
					0.33469557762145996,
					0.33222639560699463,
					1
				],
				"metallicFactor":0
			}
		}
	],
	"meshes":[
		{
			"name":"Cube.001",
			"primitives":[
				{
					"attributes":{
						"POSITION":0,
						"NORMAL":1,
						"TEXCOORD_0":2
					},
					"indices":3,
					"material":0
				},
				{
					"attributes":{
						"POSITION":4,
						"NORMAL":5,
						"TEXCOORD_0":6
					},
					"indices":7,
					"material":1
				},
				{
					"attributes":{
						"POSITION":8,
						"NORMAL":9,
						"TEXCOORD_0":10
					},
					"indices":11,
					"material":2
				},
				{
					"attributes":{
						"POSITION":12,
						"NORMAL":13,
						"TEXCOORD_0":14
					},
					"indices":15,
					"material":3
				}
			]
		}
	],
	"accessors":[
		{
			"bufferView":0,
			"componentType":5126,
			"count":141,
			"max":[
				1.138839840888977,
				199.42074584960938,
				0.40000027418136597
			],
			"min":[
				-1.1388294696807861,
				-1,
				-0.4000001549720764
			],
			"type":"VEC3"
		},
		{
			"bufferView":1,
			"componentType":5126,
			"count":141,
			"type":"VEC3"
		},
		{
			"bufferView":2,
			"componentType":5126,
			"count":141,
			"type":"VEC2"
		},
		{
			"bufferView":3,
			"componentType":5123,
			"count":396,
			"type":"SCALAR"
		},
		{
			"bufferView":4,
			"componentType":5126,
			"count":65,
			"max":[
				0.9155402183532715,
				228.231689453125,
				0.4000003933906555
			],
			"min":[
				-0.9146216511726379,
				201,
				-0.40000033378601074
			],
			"type":"VEC3"
		},
		{
			"bufferView":5,
			"componentType":5126,
			"count":65,
			"type":"VEC3"
		},
		{
			"bufferView":6,
			"componentType":5126,
			"count":65,
			"type":"VEC2"
		},
		{
			"bufferView":7,
			"componentType":5123,
			"count":300,
			"type":"SCALAR"
		},
		{
			"bufferView":8,
			"componentType":5126,
			"count":44,
			"max":[
				0.9465704560279846,
				201,
				0.4086979627609253
			],
			"min":[
				-0.9456303715705872,
				199.42074584960938,
				-0.4086979627609253
			],
			"type":"VEC3"
		},
		{
			"bufferView":9,
			"componentType":5126,
			"count":44,
			"type":"VEC3"
		},
		{
			"bufferView":10,
			"componentType":5126,
			"count":44,
			"type":"VEC2"
		},
		{
			"bufferView":11,
			"componentType":5123,
			"count":180,
			"type":"SCALAR"
		},
		{
			"bufferView":12,
			"componentType":5126,
			"count":103,
			"max":[
				1.095884919166565,
				169.06411743164062,
				0.40000027418136597
			],
			"min":[
				-1.095874547958374,
				39.399993896484375,
				-0.4000001549720764
			],
			"type":"VEC3"
		},
		{
			"bufferView":13,
			"componentType":5126,
			"count":103,
			"type":"VEC3"
		},
		{
			"bufferView":14,
			"componentType":5126,
			"count":103,
			"type":"VEC2"
		},
		{
			"bufferView":15,
			"componentType":5123,
			"count":300,
			"type":"SCALAR"
		}
	],
	"bufferViews":[
		{
			"buffer":0,
			"byteLength":1692,
			"byteOffset":0,
			"target":34962
		},
		{
			"buffer":0,
			"byteLength":1692,
			"byteOffset":1692,
			"target":34962
		},
		{
			"buffer":0,
			"byteLength":1128,
			"byteOffset":3384,
			"target":34962
		},
		{
			"buffer":0,
			"byteLength":792,
			"byteOffset":4512,
			"target":34963
		},
		{
			"buffer":0,
			"byteLength":780,
			"byteOffset":5304,
			"target":34962
		},
		{
			"buffer":0,
			"byteLength":780,
			"byteOffset":6084,
			"target":34962
		},
		{
			"buffer":0,
			"byteLength":520,
			"byteOffset":6864,
			"target":34962
		},
		{
			"buffer":0,
			"byteLength":600,
			"byteOffset":7384,
			"target":34963
		},
		{
			"buffer":0,
			"byteLength":528,
			"byteOffset":7984,
			"target":34962
		},
		{
			"buffer":0,
			"byteLength":528,
			"byteOffset":8512,
			"target":34962
		},
		{
			"buffer":0,
			"byteLength":352,
			"byteOffset":9040,
			"target":34962
		},
		{
			"buffer":0,
			"byteLength":360,
			"byteOffset":9392,
			"target":34963
		},
		{
			"buffer":0,
			"byteLength":1236,
			"byteOffset":9752,
			"target":34962
		},
		{
			"buffer":0,
			"byteLength":1236,
			"byteOffset":10988,
			"target":34962
		},
		{
			"buffer":0,
			"byteLength":824,
			"byteOffset":12224,
			"target":34962
		},
		{
			"buffer":0,
			"byteLength":600,
			"byteOffset":13048,
			"target":34963
		}
	],
	"buffers":[
		{
			"byteLength":13648,
			"uri":"paris_test_building_02_-c1189a31e5283c224ecdc8935ebad53c.bin"
		}
	]
}
