{
	"asset":{
		"generator":"Khronos glTF Blender I/O v3.6.27",
		"version":"2.0"
	},
	"scene":0,
	"scenes":[
		{
			"name":"Scene",
			"nodes":[
				0
			]
		}
	],
	"nodes":[
		{
			"mesh":0,
			"name":"Cube-col",
			"rotation":[
				0.13052619993686676,
				0,
				0,
				0.9914449453353882
			],
			"scale":[
				1.3000000715255737,
				0.9000000357627869,
				0.5637970566749573
			]
		}
	],
	"materials":[
		{
			"doubleSided":true,
			"name":"Material",
			"pbrMetallicRoughness":{
				"baseColorFactor":[
					0.5136339068412781,
					0.012229489162564278,
					0,
					1
				],
				"metallicFactor":0,
				"roughnessFactor":0.10000000149011612
			}
		},
		{
			"doubleSided":true,
			"name":"red",
			"pbrMetallicRoughness":{
				"baseColorFactor":[
					0.07100590318441391,
					0,
					0.0011983669828623533,
					1
				],
				"metallicFactor":0,
				"roughnessFactor":0.10000000149011612
			}
		},
		{
			"doubleSided":true,
			"name":"Material.001",
			"pbrMetallicRoughness":{
				"baseColorFactor":[
					0.09190308302640915,
					0.09190308302640915,
					0.09190308302640915,
					1
				],
				"metallicFactor":0.6535432934761047,
				"roughnessFactor":0.437007874250412
			}
		}
	],
	"meshes":[
		{
			"name":"Cube",
			"primitives":[
				{
					"attributes":{
						"POSITION":0,
						"NORMAL":1,
						"TEXCOORD_0":2,
						"TANGENT":3
					},
					"indices":4,
					"material":0
				},
				{
					"attributes":{
						"POSITION":5,
						"NORMAL":6,
						"TEXCOORD_0":7,
						"TANGENT":8
					},
					"indices":9,
					"material":1
				},
				{
					"attributes":{
						"POSITION":10,
						"NORMAL":11,
						"TEXCOORD_0":12,
						"TANGENT":13
					},
					"indices":14,
					"material":2
				}
			]
		}
	],
	"accessors":[
		{
			"bufferView":0,
			"componentType":5126,
			"count":33,
			"max":[
				0.10000002384185791,
				1.6562474966049194,
				1.132338523864746
			],
			"min":[
				-0.10000002384185791,
				-1.6562474966049194,
				-1.0636909008026123
			],
			"type":"VEC3"
		},
		{
			"bufferView":1,
			"componentType":5126,
			"count":33,
			"type":"VEC3"
		},
		{
			"bufferView":2,
			"componentType":5126,
			"count":33,
			"type":"VEC2"
		},
		{
			"bufferView":3,
			"componentType":5126,
			"count":33,
			"type":"VEC4"
		},
		{
			"bufferView":4,
			"componentType":5123,
			"count":96,
			"type":"SCALAR"
		},
		{
			"bufferView":5,
			"componentType":5126,
			"count":32,
			"max":[
				0.10000002384185791,
				1.600000023841858,
				1.0938833951950073
			],
			"min":[
				-0.10000002384185791,
				-1.600000023841858,
				-1.0938833951950073
			],
			"type":"VEC3"
		},
		{
			"bufferView":6,
			"componentType":5126,
			"count":32,
			"type":"VEC3"
		},
		{
			"bufferView":7,
			"componentType":5126,
			"count":32,
			"type":"VEC2"
		},
		{
			"bufferView":8,
			"componentType":5126,
			"count":32,
			"type":"VEC4"
		},
		{
			"bufferView":9,
			"componentType":5123,
			"count":84,
			"type":"SCALAR"
		},
		{
			"bufferView":10,
			"componentType":5126,
			"count":22,
			"max":[
				0.10000002384185791,
				0.1453925371170044,
				-1.0275670289993286
			],
			"min":[
				-0.10000002384185791,
				-0.6790100932121277,
				-3.9404375553131104
			],
			"type":"VEC3"
		},
		{
			"bufferView":11,
			"componentType":5126,
			"count":22,
			"type":"VEC3"
		},
		{
			"bufferView":12,
			"componentType":5126,
			"count":22,
			"type":"VEC2"
		},
		{
			"bufferView":13,
			"componentType":5126,
			"count":22,
			"type":"VEC4"
		},
		{
			"bufferView":14,
			"componentType":5123,
			"count":72,
			"type":"SCALAR"
		}
	],
	"bufferViews":[
		{
			"buffer":0,
			"byteLength":396,
			"byteOffset":0,
			"target":34962
		},
		{
			"buffer":0,
			"byteLength":396,
			"byteOffset":396,
			"target":34962
		},
		{
			"buffer":0,
			"byteLength":264,
			"byteOffset":792,
			"target":34962
		},
		{
			"buffer":0,
			"byteLength":528,
			"byteOffset":1056,
			"target":34962
		},
		{
			"buffer":0,
			"byteLength":192,
			"byteOffset":1584,
			"target":34963
		},
		{
			"buffer":0,
			"byteLength":384,
			"byteOffset":1776,
			"target":34962
		},
		{
			"buffer":0,
			"byteLength":384,
			"byteOffset":2160,
			"target":34962
		},
		{
			"buffer":0,
			"byteLength":256,
			"byteOffset":2544,
			"target":34962
		},
		{
			"buffer":0,
			"byteLength":512,
			"byteOffset":2800,
			"target":34962
		},
		{
			"buffer":0,
			"byteLength":168,
			"byteOffset":3312,
			"target":34963
		},
		{
			"buffer":0,
			"byteLength":264,
			"byteOffset":3480,
			"target":34962
		},
		{
			"buffer":0,
			"byteLength":264,
			"byteOffset":3744,
			"target":34962
		},
		{
			"buffer":0,
			"byteLength":176,
			"byteOffset":4008,
			"target":34962
		},
		{
			"buffer":0,
			"byteLength":352,
			"byteOffset":4184,
			"target":34962
		},
		{
			"buffer":0,
			"byteLength":144,
			"byteOffset":4536,
			"target":34963
		}
	],
	"buffers":[
		{
			"byteLength":4680,
			"uri":"sign_tabac-db42fb825d1a4424e74afb6034b144b6.bin"
		}
	]
}
