{
	"asset":{
		"generator":"Khronos glTF Blender I/O v3.6.27",
		"version":"2.0"
	},
	"extensionsUsed":[
		"KHR_materials_unlit"
	],
	"scene":0,
	"scenes":[
		{
			"extras":{
				"skinify":{
					"connect_mesh":0,
					"connect_parents":0,
					"generate_all":0,
					"thickness":0.800000011920929,
					"finger_thickness":0.25,
					"apply_mod":1,
					"parent_armature":1,
					"sub_level":1
				},
				"wiggle":{
					"is_rendering":0
				},
				"ypui":{
					"expand_channels":0,
					"expand_mask_channels":0,
					"show_channels":1,
					"show_layers":1,
					"show_materials":0,
					"show_object":0,
					"show_stats":0,
					"show_support":0,
					"tree_name":""
				},
				"yp":{
					"last_object":"HanginglampRig",
					"last_mode":"OBJECT",
					"edit_image_editor_area_index":-1
				},
				"qremesher":{},
				"uuid":"ffd54485-0daa-4be5-b4e5-8606de04d0df",
				"assets reported":{},
				"muv_pack_uv_enabled":1,
				"muv_smooth_uv_enabled":0,
				"muv_smooth_uv_mesh_infl":0.23999999463558197,
				"muv_smooth_uv_transmission":1,
				"muv_align_uv_enabled":1,
				"muv_smooth_uv_select":1,
				"muv_select_uv_enabled":1
			},
			"name":"Scene",
			"nodes":[
				10,
				11,
				12
			]
		}
	],
	"nodes":[
		{
			"name":"Bone.003",
			"rotation":[
				3.945215709677541e-08,
				-3.9627022374588705e-07,
				-0.0015410888008773327,
				0.9999988079071045
			],
			"scale":[
				0.9999999403953552,
				0.9999999403953552,
				1
			],
			"translation":[
				-1.3533203890858658e-08,
				0.06408316642045975,
				-1.7763568394002505e-14
			]
		},
		{
			"children":[
				0
			],
			"name":"Bone.004",
			"rotation":[
				-2.062894566279283e-08,
				-4.6899927497179306e-08,
				9.865843458101153e-05,
				1
			],
			"scale":[
				1.0000001192092896,
				1,
				1
			],
			"translation":[
				1.0761227464683998e-08,
				0.0506209135055542,
				-1.0658141036401503e-14
			]
		},
		{
			"children":[
				1
			],
			"name":"Bone.006",
			"rotation":[
				5.825107507462235e-09,
				8.525234989065211e-07,
				-2.7280842914478853e-05,
				1
			],
			"scale":[
				0.9999999403953552,
				0.9999999403953552,
				1
			],
			"translation":[
				5.528297819523686e-10,
				0.043475016951560974,
				1.9539925233402755e-14
			]
		},
		{
			"children":[
				2
			],
			"name":"Bone.005",
			"rotation":[
				2.064008342017587e-08,
				-8.412775969190989e-07,
				-9.977457375498489e-05,
				1
			],
			"scale":[
				1,
				0.9999999403953552,
				1
			],
			"translation":[
				-2.780863184170812e-08,
				0.057958077639341354,
				-3.552713678800501e-14
			]
		},
		{
			"children":[
				3
			],
			"name":"Bone.002",
			"rotation":[
				3.2400831173617917e-07,
				1.533968827516219e-07,
				-0.6721405386924744,
				0.7404236197471619
			],
			"translation":[
				0.16038097441196442,
				0.16705767810344696,
				-5.122036128568652e-09
			]
		},
		{
			"children":[
				4
			],
			"name":"Bone.001",
			"rotation":[
				-2.653850827982751e-08,
				1.8177553329223883e-07,
				-0.05642316862940788,
				0.9984069466590881
			],
			"scale":[
				0.9999999403953552,
				0.9999999403953552,
				1
			],
			"translation":[
				9.357352670491537e-10,
				0.5054544806480408,
				2.740863092043355e-16
			]
		},
		{
			"children":[
				5
			],
			"name":"Bone",
			"rotation":[
				-0.506050169467926,
				-0.4938849210739136,
				0.5060410499572754,
				0.4938758909702301
			],
			"scale":[
				1.0000001192092896,
				0.9999998807907104,
				0.9999998807907104
			],
			"translation":[
				-5.805358971322505e-11,
				1.4901161193847656e-08,
				3.278123384992549e-18
			]
		},
		{
			"children":[
				6
			],
			"name":"Bone.007",
			"rotation":[
				-0.7071083188056946,
				0.002628571819514036,
				0.7070954442024231,
				0.0026285850908607244
			],
			"scale":[
				1.0000001192092896,
				1.0000001192092896,
				1
			]
		},
		{
			"mesh":0,
			"name":"Hook.001",
			"skin":0
		},
		{
			"mesh":1,
			"name":"LampCord.001",
			"skin":0
		},
		{
			"children":[
				8,
				9,
				7
			],
			"extras":{
				"wiggle_enable":0
			},
			"name":"HanginglampRig"
		},
		{
			"name":"Cube",
			"scale":[
				0.07973068952560425,
				0.07973068952560425,
				0.07973068952560425
			]
		},
		{
			"name":"BezierCircle"
		}
	],
	"animations":[
		{
			"channels":[
				{
					"sampler":0,
					"target":{
						"node":7,
						"path":"translation"
					}
				},
				{
					"sampler":1,
					"target":{
						"node":7,
						"path":"rotation"
					}
				},
				{
					"sampler":2,
					"target":{
						"node":7,
						"path":"scale"
					}
				},
				{
					"sampler":3,
					"target":{
						"node":6,
						"path":"translation"
					}
				},
				{
					"sampler":4,
					"target":{
						"node":6,
						"path":"rotation"
					}
				},
				{
					"sampler":5,
					"target":{
						"node":6,
						"path":"scale"
					}
				},
				{
					"sampler":6,
					"target":{
						"node":5,
						"path":"translation"
					}
				},
				{
					"sampler":7,
					"target":{
						"node":5,
						"path":"rotation"
					}
				},
				{
					"sampler":8,
					"target":{
						"node":5,
						"path":"scale"
					}
				},
				{
					"sampler":9,
					"target":{
						"node":4,
						"path":"translation"
					}
				},
				{
					"sampler":10,
					"target":{
						"node":4,
						"path":"rotation"
					}
				},
				{
					"sampler":11,
					"target":{
						"node":4,
						"path":"scale"
					}
				},
				{
					"sampler":12,
					"target":{
						"node":3,
						"path":"translation"
					}
				},
				{
					"sampler":13,
					"target":{
						"node":3,
						"path":"rotation"
					}
				},
				{
					"sampler":14,
					"target":{
						"node":3,
						"path":"scale"
					}
				},
				{
					"sampler":15,
					"target":{
						"node":2,
						"path":"translation"
					}
				},
				{
					"sampler":16,
					"target":{
						"node":2,
						"path":"rotation"
					}
				},
				{
					"sampler":17,
					"target":{
						"node":2,
						"path":"scale"
					}
				},
				{
					"sampler":18,
					"target":{
						"node":1,
						"path":"translation"
					}
				},
				{
					"sampler":19,
					"target":{
						"node":1,
						"path":"rotation"
					}
				},
				{
					"sampler":20,
					"target":{
						"node":1,
						"path":"scale"
					}
				},
				{
					"sampler":21,
					"target":{
						"node":0,
						"path":"translation"
					}
				},
				{
					"sampler":22,
					"target":{
						"node":0,
						"path":"rotation"
					}
				},
				{
					"sampler":23,
					"target":{
						"node":0,
						"path":"scale"
					}
				}
			],
			"name":"HanginglampRigAction",
			"samplers":[
				{
					"input":22,
					"interpolation":"STEP",
					"output":23
				},
				{
					"input":22,
					"interpolation":"STEP",
					"output":24
				},
				{
					"input":22,
					"interpolation":"STEP",
					"output":25
				},
				{
					"input":22,
					"interpolation":"STEP",
					"output":26
				},
				{
					"input":22,
					"interpolation":"STEP",
					"output":27
				},
				{
					"input":22,
					"interpolation":"STEP",
					"output":28
				},
				{
					"input":22,
					"interpolation":"STEP",
					"output":29
				},
				{
					"input":22,
					"interpolation":"STEP",
					"output":30
				},
				{
					"input":22,
					"interpolation":"STEP",
					"output":31
				},
				{
					"input":22,
					"interpolation":"STEP",
					"output":32
				},
				{
					"input":22,
					"interpolation":"STEP",
					"output":33
				},
				{
					"input":22,
					"interpolation":"STEP",
					"output":34
				},
				{
					"input":22,
					"interpolation":"STEP",
					"output":35
				},
				{
					"input":36,
					"interpolation":"LINEAR",
					"output":37
				},
				{
					"input":22,
					"interpolation":"STEP",
					"output":38
				},
				{
					"input":22,
					"interpolation":"STEP",
					"output":39
				},
				{
					"input":36,
					"interpolation":"LINEAR",
					"output":40
				},
				{
					"input":22,
					"interpolation":"STEP",
					"output":41
				},
				{
					"input":22,
					"interpolation":"STEP",
					"output":42
				},
				{
					"input":36,
					"interpolation":"LINEAR",
					"output":43
				},
				{
					"input":22,
					"interpolation":"STEP",
					"output":44
				},
				{
					"input":22,
					"interpolation":"STEP",
					"output":45
				},
				{
					"input":36,
					"interpolation":"LINEAR",
					"output":46
				},
				{
					"input":22,
					"interpolation":"STEP",
					"output":47
				}
			]
		}
	],
	"materials":[
		{
			"extensions":{
				"KHR_materials_unlit":{}
			},
			"extras":{
				"yp":{
					"active_ypaint_node":""
				}
			},
			"name":"LampVintage_Mat",
			"pbrMetallicRoughness":{
				"metallicFactor":0,
				"roughnessFactor":0.9
			}
		},
		{
			"extras":{
				"yp":{
					"active_ypaint_node":""
				}
			},
			"name":"Light",
			"pbrMetallicRoughness":{
				"baseColorFactor":[
					0.800000011920929,
					0.800000011920929,
					0.800000011920929,
					1
				],
				"metallicFactor":0,
				"roughnessFactor":0.5
			}
		}
	],
	"meshes":[
		{
			"name":"Cube.001",
			"primitives":[
				{
					"attributes":{
						"POSITION":0,
						"NORMAL":1,
						"TEXCOORD_0":2,
						"TANGENT":3,
						"JOINTS_0":4,
						"WEIGHTS_0":5
					},
					"indices":6,
					"material":0
				},
				{
					"attributes":{
						"POSITION":7,
						"NORMAL":8,
						"TEXCOORD_0":9,
						"TANGENT":10,
						"JOINTS_0":11,
						"WEIGHTS_0":12
					},
					"indices":13,
					"material":1
				}
			]
		},
		{
			"name":"Cylinder",
			"primitives":[
				{
					"attributes":{
						"POSITION":15,
						"NORMAL":16,
						"TEXCOORD_0":17,
						"TANGENT":18,
						"JOINTS_0":19,
						"WEIGHTS_0":20
					},
					"indices":21,
					"material":0
				}
			]
		}
	],
	"skins":[
		{
			"inverseBindMatrices":14,
			"joints":[
				7,
				6,
				5,
				4,
				3,
				2,
				1,
				0
			],
			"name":"HanginglampRig"
		}
	],
	"accessors":[
		{
			"bufferView":0,
			"componentType":5126,
			"count":578,
			"max":[
				0.879374623298645,
				0.1176530122756958,
				0.22420744597911835
			],
			"min":[
				-0.007253885269165039,
				-0.9218658208847046,
				-0.22420860826969147
			],
			"type":"VEC3"
		},
		{
			"bufferView":1,
			"componentType":5126,
			"count":578,
			"type":"VEC3"
		},
		{
			"bufferView":2,
			"componentType":5126,
			"count":578,
			"type":"VEC2"
		},
		{
			"bufferView":3,
			"componentType":5126,
			"count":578,
			"type":"VEC4"
		},
		{
			"bufferView":4,
			"componentType":5121,
			"count":578,
			"type":"VEC4"
		},
		{
			"bufferView":5,
			"componentType":5126,
			"count":578,
			"type":"VEC4"
		},
		{
			"bufferView":6,
			"componentType":5123,
			"count":2058,
			"type":"SCALAR"
		},
		{
			"bufferView":7,
			"componentType":5126,
			"count":45,
			"max":[
				0.7992616891860962,
				-0.583566427230835,
				0.14409446716308594
			],
			"min":[
				0.5110715627670288,
				-0.8407897353172302,
				-0.14409562945365906
			],
			"type":"VEC3"
		},
		{
			"bufferView":8,
			"componentType":5126,
			"count":45,
			"type":"VEC3"
		},
		{
			"bufferView":9,
			"componentType":5126,
			"count":45,
			"type":"VEC2"
		},
		{
			"bufferView":10,
			"componentType":5126,
			"count":45,
			"type":"VEC4"
		},
		{
			"bufferView":11,
			"componentType":5121,
			"count":45,
			"type":"VEC4"
		},
		{
			"bufferView":12,
			"componentType":5126,
			"count":45,
			"type":"VEC4"
		},
		{
			"bufferView":13,
			"componentType":5123,
			"count":120,
			"type":"SCALAR"
		},
		{
			"bufferView":14,
			"componentType":5126,
			"count":8,
			"type":"MAT4"
		},
		{
			"bufferView":15,
			"componentType":5126,
			"count":48,
			"max":[
				0.6752394437789917,
				-0.16593170166015625,
				0.018717341125011444
			],
			"min":[
				0.6350938081741333,
				-0.39162737131118774,
				-0.019463423639535904
			],
			"type":"VEC3"
		},
		{
			"bufferView":16,
			"componentType":5126,
			"count":48,
			"type":"VEC3"
		},
		{
			"bufferView":17,
			"componentType":5126,
			"count":48,
			"type":"VEC2"
		},
		{
			"bufferView":18,
			"componentType":5126,
			"count":48,
			"type":"VEC4"
		},
		{
			"bufferView":19,
			"componentType":5121,
			"count":48,
			"type":"VEC4"
		},
		{
			"bufferView":20,
			"componentType":5126,
			"count":48,
			"type":"VEC4"
		},
		{
			"bufferView":21,
			"componentType":5123,
			"count":180,
			"type":"SCALAR"
		},
		{
			"bufferView":22,
			"componentType":5126,
			"count":2,
			"max":[
				8.333333333333334
			],
			"min":[
				0.041666666666666664
			],
			"type":"SCALAR"
		},
		{
			"bufferView":23,
			"componentType":5126,
			"count":2,
			"type":"VEC3"
		},
		{
			"bufferView":24,
			"componentType":5126,
			"count":2,
			"type":"VEC4"
		},
		{
			"bufferView":25,
			"componentType":5126,
			"count":2,
			"type":"VEC3"
		},
		{
			"bufferView":26,
			"componentType":5126,
			"count":2,
			"type":"VEC3"
		},
		{
			"bufferView":27,
			"componentType":5126,
			"count":2,
			"type":"VEC4"
		},
		{
			"bufferView":28,
			"componentType":5126,
			"count":2,
			"type":"VEC3"
		},
		{
			"bufferView":29,
			"componentType":5126,
			"count":2,
			"type":"VEC3"
		},
		{
			"bufferView":30,
			"componentType":5126,
			"count":2,
			"type":"VEC4"
		},
		{
			"bufferView":31,
			"componentType":5126,
			"count":2,
			"type":"VEC3"
		},
		{
			"bufferView":32,
			"componentType":5126,
			"count":2,
			"type":"VEC3"
		},
		{
			"bufferView":33,
			"componentType":5126,
			"count":2,
			"type":"VEC4"
		},
		{
			"bufferView":34,
			"componentType":5126,
			"count":2,
			"type":"VEC3"
		},
		{
			"bufferView":35,
			"componentType":5126,
			"count":2,
			"type":"VEC3"
		},
		{
			"bufferView":36,
			"componentType":5126,
			"count":200,
			"max":[
				8.333333333333334
			],
			"min":[
				0.041666666666666664
			],
			"type":"SCALAR"
		},
		{
			"bufferView":37,
			"componentType":5126,
			"count":200,
			"type":"VEC4"
		},
		{
			"bufferView":38,
			"componentType":5126,
			"count":2,
			"type":"VEC3"
		},
		{
			"bufferView":39,
			"componentType":5126,
			"count":2,
			"type":"VEC3"
		},
		{
			"bufferView":40,
			"componentType":5126,
			"count":200,
			"type":"VEC4"
		},
		{
			"bufferView":41,
			"componentType":5126,
			"count":2,
			"type":"VEC3"
		},
		{
			"bufferView":42,
			"componentType":5126,
			"count":2,
			"type":"VEC3"
		},
		{
			"bufferView":43,
			"componentType":5126,
			"count":200,
			"type":"VEC4"
		},
		{
			"bufferView":44,
			"componentType":5126,
			"count":2,
			"type":"VEC3"
		},
		{
			"bufferView":45,
			"componentType":5126,
			"count":2,
			"type":"VEC3"
		},
		{
			"bufferView":46,
			"componentType":5126,
			"count":200,
			"type":"VEC4"
		},
		{
			"bufferView":47,
			"componentType":5126,
			"count":2,
			"type":"VEC3"
		}
	],
	"bufferViews":[
		{
			"buffer":0,
			"byteLength":6936,
			"byteOffset":0,
			"target":34962
		},
		{
			"buffer":0,
			"byteLength":6936,
			"byteOffset":6936,
			"target":34962
		},
		{
			"buffer":0,
			"byteLength":4624,
			"byteOffset":13872,
			"target":34962
		},
		{
			"buffer":0,
			"byteLength":9248,
			"byteOffset":18496,
			"target":34962
		},
		{
			"buffer":0,
			"byteLength":2312,
			"byteOffset":27744,
			"target":34962
		},
		{
			"buffer":0,
			"byteLength":9248,
			"byteOffset":30056,
			"target":34962
		},
		{
			"buffer":0,
			"byteLength":4116,
			"byteOffset":39304,
			"target":34963
		},
		{
			"buffer":0,
			"byteLength":540,
			"byteOffset":43420,
			"target":34962
		},
		{
			"buffer":0,
			"byteLength":540,
			"byteOffset":43960,
			"target":34962
		},
		{
			"buffer":0,
			"byteLength":360,
			"byteOffset":44500,
			"target":34962
		},
		{
			"buffer":0,
			"byteLength":720,
			"byteOffset":44860,
			"target":34962
		},
		{
			"buffer":0,
			"byteLength":180,
			"byteOffset":45580,
			"target":34962
		},
		{
			"buffer":0,
			"byteLength":720,
			"byteOffset":45760,
			"target":34962
		},
		{
			"buffer":0,
			"byteLength":240,
			"byteOffset":46480,
			"target":34963
		},
		{
			"buffer":0,
			"byteLength":512,
			"byteOffset":46720
		},
		{
			"buffer":0,
			"byteLength":576,
			"byteOffset":47232,
			"target":34962
		},
		{
			"buffer":0,
			"byteLength":576,
			"byteOffset":47808,
			"target":34962
		},
		{
			"buffer":0,
			"byteLength":384,
			"byteOffset":48384,
			"target":34962
		},
		{
			"buffer":0,
			"byteLength":768,
			"byteOffset":48768,
			"target":34962
		},
		{
			"buffer":0,
			"byteLength":192,
			"byteOffset":49536,
			"target":34962
		},
		{
			"buffer":0,
			"byteLength":768,
			"byteOffset":49728,
			"target":34962
		},
		{
			"buffer":0,
			"byteLength":360,
			"byteOffset":50496,
			"target":34963
		},
		{
			"buffer":0,
			"byteLength":8,
			"byteOffset":50856
		},
		{
			"buffer":0,
			"byteLength":24,
			"byteOffset":50864
		},
		{
			"buffer":0,
			"byteLength":32,
			"byteOffset":50888
		},
		{
			"buffer":0,
			"byteLength":24,
			"byteOffset":50920
		},
		{
			"buffer":0,
			"byteLength":24,
			"byteOffset":50944
		},
		{
			"buffer":0,
			"byteLength":32,
			"byteOffset":50968
		},
		{
			"buffer":0,
			"byteLength":24,
			"byteOffset":51000
		},
		{
			"buffer":0,
			"byteLength":24,
			"byteOffset":51024
		},
		{
			"buffer":0,
			"byteLength":32,
			"byteOffset":51048
		},
		{
			"buffer":0,
			"byteLength":24,
			"byteOffset":51080
		},
		{
			"buffer":0,
			"byteLength":24,
			"byteOffset":51104
		},
		{
			"buffer":0,
			"byteLength":32,
			"byteOffset":51128
		},
		{
			"buffer":0,
			"byteLength":24,
			"byteOffset":51160
		},
		{
			"buffer":0,
			"byteLength":24,
			"byteOffset":51184
		},
		{
			"buffer":0,
			"byteLength":800,
			"byteOffset":51208
		},
		{
			"buffer":0,
			"byteLength":3200,
			"byteOffset":52008
		},
		{
			"buffer":0,
			"byteLength":24,
			"byteOffset":55208
		},
		{
			"buffer":0,
			"byteLength":24,
			"byteOffset":55232
		},
		{
			"buffer":0,
			"byteLength":3200,
			"byteOffset":55256
		},
		{
			"buffer":0,
			"byteLength":24,
			"byteOffset":58456
		},
		{
			"buffer":0,
			"byteLength":24,
			"byteOffset":58480
		},
		{
			"buffer":0,
			"byteLength":3200,
			"byteOffset":58504
		},
		{
			"buffer":0,
			"byteLength":24,
			"byteOffset":61704
		},
		{
			"buffer":0,
			"byteLength":24,
			"byteOffset":61728
		},
		{
			"buffer":0,
			"byteLength":3200,
			"byteOffset":61752
		},
		{
			"buffer":0,
			"byteLength":24,
			"byteOffset":64952
		}
	],
	"buffers":[
		{
			"byteLength":64976,
			"uri":"Vintage_Lamp_Hanging-9fb2301e21216f70682949a5661a45a1.bin"
		}
	]
}
