{
	"asset":{
		"generator":"Khronos glTF Blender I/O v3.6.27",
		"version":"2.0"
	},
	"extensionsUsed":[
		"KHR_materials_unlit"
	],
	"scene":0,
	"scenes":[
		{
			"extras":{
				"skinify":{
					"connect_mesh":0,
					"connect_parents":0,
					"generate_all":0,
					"thickness":0.800000011920929,
					"finger_thickness":0.25,
					"apply_mod":1,
					"parent_armature":1,
					"sub_level":1
				},
				"wiggle":{
					"is_rendering":0
				},
				"ypui":{
					"expand_channels":0,
					"expand_mask_channels":0,
					"show_channels":1,
					"show_layers":1,
					"show_materials":0,
					"show_object":0,
					"show_stats":0,
					"show_support":0,
					"tree_name":""
				},
				"yp":{
					"last_object":"LampPost_001",
					"last_mode":"OBJECT",
					"edit_image_editor_area_index":-1
				},
				"qremesher":{},
				"uuid":"ffd54485-0daa-4be5-b4e5-8606de04d0df",
				"assets reported":{},
				"muv_pack_uv_enabled":1,
				"muv_smooth_uv_enabled":0,
				"muv_smooth_uv_mesh_infl":0.23999999463558197,
				"muv_smooth_uv_transmission":1,
				"muv_align_uv_enabled":1,
				"muv_smooth_uv_select":1,
				"muv_select_uv_enabled":1
			},
			"name":"Scene",
			"nodes":[
				0
			]
		}
	],
	"nodes":[
		{
			"mesh":0,
			"name":"LampPost_001-col"
		}
	],
	"materials":[
		{
			"extensions":{
				"KHR_materials_unlit":{}
			},
			"extras":{
				"yp":{
					"active_ypaint_node":""
				}
			},
			"name":"LampVintage_Mat",
			"pbrMetallicRoughness":{
				"metallicFactor":0,
				"roughnessFactor":0.9
			}
		},
		{
			"extras":{
				"yp":{
					"active_ypaint_node":""
				}
			},
			"name":"Light",
			"pbrMetallicRoughness":{
				"baseColorFactor":[
					0.800000011920929,
					0.800000011920929,
					0.800000011920929,
					1
				],
				"metallicFactor":0,
				"roughnessFactor":0.5
			}
		}
	],
	"meshes":[
		{
			"name":"Cube.005",
			"primitives":[
				{
					"attributes":{
						"POSITION":0,
						"NORMAL":1,
						"TEXCOORD_0":2,
						"TANGENT":3
					},
					"indices":4,
					"material":0
				},
				{
					"attributes":{
						"POSITION":5,
						"NORMAL":6,
						"TEXCOORD_0":7,
						"TANGENT":8
					},
					"indices":9,
					"material":1
				}
			]
		}
	],
	"accessors":[
		{
			"bufferView":0,
			"componentType":5126,
			"count":604,
			"max":[
				0.2242080271244049,
				3.5818328857421875,
				0.22420796751976013
			],
			"min":[
				-0.2242080271244049,
				-0.017709897831082344,
				-0.22420808672904968
			],
			"type":"VEC3"
		},
		{
			"bufferView":1,
			"componentType":5126,
			"count":604,
			"type":"VEC3"
		},
		{
			"bufferView":2,
			"componentType":5126,
			"count":604,
			"type":"VEC2"
		},
		{
			"bufferView":3,
			"componentType":5126,
			"count":604,
			"type":"VEC4"
		},
		{
			"bufferView":4,
			"componentType":5123,
			"count":2376,
			"type":"SCALAR"
		},
		{
			"bufferView":5,
			"componentType":5126,
			"count":45,
			"max":[
				0.1440950483083725,
				3.3347575664520264,
				0.14409498870372772
			],
			"min":[
				-0.1440950483083725,
				3.0775341987609863,
				-0.14409510791301727
			],
			"type":"VEC3"
		},
		{
			"bufferView":6,
			"componentType":5126,
			"count":45,
			"type":"VEC3"
		},
		{
			"bufferView":7,
			"componentType":5126,
			"count":45,
			"type":"VEC2"
		},
		{
			"bufferView":8,
			"componentType":5126,
			"count":45,
			"type":"VEC4"
		},
		{
			"bufferView":9,
			"componentType":5123,
			"count":120,
			"type":"SCALAR"
		}
	],
	"bufferViews":[
		{
			"buffer":0,
			"byteLength":7248,
			"byteOffset":0,
			"target":34962
		},
		{
			"buffer":0,
			"byteLength":7248,
			"byteOffset":7248,
			"target":34962
		},
		{
			"buffer":0,
			"byteLength":4832,
			"byteOffset":14496,
			"target":34962
		},
		{
			"buffer":0,
			"byteLength":9664,
			"byteOffset":19328,
			"target":34962
		},
		{
			"buffer":0,
			"byteLength":4752,
			"byteOffset":28992,
			"target":34963
		},
		{
			"buffer":0,
			"byteLength":540,
			"byteOffset":33744,
			"target":34962
		},
		{
			"buffer":0,
			"byteLength":540,
			"byteOffset":34284,
			"target":34962
		},
		{
			"buffer":0,
			"byteLength":360,
			"byteOffset":34824,
			"target":34962
		},
		{
			"buffer":0,
			"byteLength":720,
			"byteOffset":35184,
			"target":34962
		},
		{
			"buffer":0,
			"byteLength":240,
			"byteOffset":35904,
			"target":34963
		}
	],
	"buffers":[
		{
			"byteLength":36144,
			"uri":"Vintage_Lamp_Post-b75b56650b3d3f238de032f050554280.bin"
		}
	]
}
