# Blender v3.6.2 OBJ File: 'paris_block_mid_01.blend'
# www.blender.org
mtllib paris_block_mid_01.mtl
o Cube
v 0.097891 1.000000 -0.800000
v 0.600000 -1.000000 -0.800000
v 0.097891 1.000000 0.800000
v 0.600000 -1.000000 0.800000
v -0.098697 1.000000 -0.800000
v -0.600000 -1.000000 -0.800000
v -0.098697 1.000000 0.800000
v -0.600000 -0.987460 0.800000
v 0.651818 0.000000 -0.813703
v -0.618704 0.000000 0.786297
v 0.651818 0.000000 0.786297
v -0.618704 0.000000 -0.813703
v 0.600000 -0.500000 -0.800000
v 0.600000 -0.500000 0.800000
v -0.600000 -0.500000 -0.800000
v -0.600000 -0.500000 0.800000
v -0.663212 0.487504 0.800000
v 0.668605 0.522326 -0.800000
v 0.668605 0.522326 0.800000
v -0.663212 0.487504 -0.800000
v -0.546733 0.750000 0.800000
v 0.545928 0.775656 -0.800000
v 0.545928 0.775656 0.800000
v -0.546733 0.750000 -0.800000
v 0.600000 -0.537460 -0.800000
v 0.600000 -0.537460 0.800000
v -0.600000 -0.550000 -0.800000
v -0.600000 -0.537460 0.800000
v -0.618404 -0.040824 0.786297
v 0.645617 -0.035578 -0.813703
v 0.645617 -0.035578 0.786297
v -0.618404 -0.040824 -0.813703
v 0.676379 0.489097 -0.800000
v 0.676379 0.489097 0.800000
v -0.663212 0.448730 -0.800000
v -0.663212 0.448730 0.800000
v -0.681956 -0.050000 0.786297
v -0.681956 0.000000 0.786297
v 0.715070 0.000000 -0.813703
v 0.715070 0.000000 0.786297
v -0.681956 0.000000 -0.813703
v -0.660000 -0.550000 0.800000
v -0.660000 -0.500000 0.800000
v -0.660000 -0.500000 -0.800000
v 0.660000 -0.500000 -0.800000
v 0.660000 -0.500000 0.800000
v -0.728501 0.437504 0.800000
v -0.728501 0.487504 0.800000
v 0.733894 0.522326 -0.800000
v 0.733894 0.522326 0.800000
v -0.728501 0.487504 -0.800000
v 0.660000 -0.550000 -0.800000
v 0.660000 -0.550000 0.800000
v -0.660000 -0.550000 -0.800000
v 0.712418 -0.042789 -0.813703
v 0.715070 -0.050000 0.786297
v -0.681956 -0.050000 -0.813703
v 0.738749 0.480711 -0.800000
v 0.733894 0.472326 0.800000
v -0.728501 0.437504 -0.800000
v -0.378271 0.886995 0.800000
v 0.377465 0.899823 -0.800000
v 0.377465 0.899823 0.800000
v -0.378271 0.886995 -0.800000
v 0.659588 -0.500000 -0.800000
vt 0.609375 0.000000
vt 0.625000 0.000000
vt 0.625000 0.250000
vt 0.609375 0.250000
vt 0.609375 0.500000
vt 0.625000 0.500000
vt 0.625000 0.750000
vt 0.609375 0.750000
vt 0.562500 0.500000
vt 0.562500 0.750000
vt 0.562500 0.750000
vt 0.562500 0.500000
vt 0.500000 0.750000
vt 0.493750 0.750000
vt 0.493750 0.750000
vt 0.500000 0.750000
vt 0.500000 0.000000
vt 0.500000 0.250000
vt 0.500000 0.250000
vt 0.500000 0.000000
vt 0.431250 1.000000
vt 0.437500 1.000000
vt 0.437500 1.000000
vt 0.431250 1.000000
vt 0.556250 1.000000
vt 0.562500 1.000000
vt 0.562500 1.000000
vt 0.556250 1.000000
vt 0.493750 0.500000
vt 0.500000 0.500000
vt 0.500000 0.500000
vt 0.493750 0.500000
vt 0.593750 0.500000
vt 0.593750 0.750000
vt 0.562500 0.000000
vt 0.593750 0.000000
vt 0.593750 0.250000
vt 0.562500 0.250000
vt 0.375000 0.500000
vt 0.431250 0.500000
vt 0.431250 0.750000
vt 0.375000 0.750000
vt 0.375000 0.000000
vt 0.431250 0.000000
vt 0.431250 0.250000
vt 0.375000 0.250000
vt 0.437500 0.000000
vt 0.493750 0.000000
vt 0.493750 0.250000
vt 0.437500 0.250000
vt 0.437500 0.500000
vt 0.437500 0.750000
vt 0.556250 0.000000
vt 0.556250 0.250000
vt 0.556250 0.500000
vt 0.556250 0.750000
vt 0.493750 0.000000
vt 0.493750 0.250000
vt 0.431250 0.000000
vt 0.437500 0.000000
vt 0.437500 0.250000
vt 0.431250 0.250000
vt 0.431250 0.500000
vt 0.437500 0.500000
vt 0.437500 0.750000
vt 0.431250 0.750000
vt 0.556250 0.500000
vt 0.556250 0.750000
vt 0.556250 0.000000
vt 0.562500 0.000000
vt 0.562500 0.250000
vt 0.556250 0.250000
vt 0.493750 1.000000
vt 0.500000 1.000000
vt 0.500000 1.000000
vt 0.493750 1.000000
vt 0.000000 0.000000
vt 0.000000 0.000000
vt 0.000000 0.000000
vt 0.000000 0.000000
vn -0.3747 0.9271 0.0000
vn 0.3373 0.9414 0.0000
vn 0.0000 1.0000 0.0000
vn 0.0000 0.0000 1.0000
vn 0.0000 0.0000 -1.0000
vn 0.9000 0.4358 0.0000
vn -0.9141 0.4056 0.0000
vn 1.0000 0.0000 0.0000
vn -1.0000 0.0000 0.0000
vn -0.9992 -0.0400 0.0000
vn 0.9952 -0.0978 0.0000
vn -0.9951 -0.0987 0.0000
vn 0.9987 -0.0502 0.0000
vn 0.9996 -0.0286 -0.0009
vn 0.9986 0.0529 0.0017
vn 0.1695 -0.9855 0.0000
vn -0.2046 -0.9788 0.0000
vn -0.2054 -0.9787 -0.0029
vn 0.1039 -0.9946 0.0039
vn 0.1429 -0.9897 0.0000
vn -0.1568 -0.9876 -0.0021
vn 0.5933 0.8050 0.0000
vn -0.6309 0.7758 0.0000
vn -0.0001 0.0297 0.9996
vn 0.0005 -0.0292 0.9996
vn -0.0005 0.0292 -0.9996
vn 0.0001 -0.0297 -0.9996
usemtl Material
s off
f 61/1/1 7/2/1 5/3/1 64/4/1
f 62/5/2 1/6/2 3/7/2 63/8/2
f 18/9/3 19/10/3 50/11/3 49/12/3
f 11/13/4 31/14/4 56/15/4 40/16/4
f 10/17/3 12/18/3 41/19/3 38/20/3
f 28/21/4 16/22/4 43/23/4 42/24/4
f 36/25/4 17/26/4 48/27/4 47/28/4
f 30/29/5 9/30/5 39/31/5 55/32/5
f 18/9/6 22/33/6 23/34/6 19/10/6
f 17/35/7 21/36/7 24/37/7 20/38/7
f 2/39/8 25/40/8 26/41/8 4/42/8
f 8/43/9 28/44/9 27/45/9 6/46/9
f 16/47/10 29/48/10 32/49/10 15/50/10
f 13/51/11 30/29/11 31/14/11 14/52/11
f 10/17/12 36/53/12 35/54/12 12/18/12
f 9/30/13 33/55/13 34/56/13 11/13/13
f 55/32/14 39/31/14 40/16/14 56/15/14
f 37/57/9 38/20/9 41/19/9 57/58/9
f 42/59/9 43/60/9 44/61/9 54/62/9
f 52/63/8 45/64/8 46/65/8 53/66/8
f 58/67/15 49/12/15 50/11/15 59/68/15
f 47/69/9 48/70/9 51/71/9 60/72/9
f 25/40/5 13/51/5 45/64/5 52/63/5
f 12/18/5 32/49/5 57/58/5 41/19/5
f 16/47/3 15/50/3 44/61/3 43/60/3
f 17/35/3 20/38/3 51/71/3 48/70/3
f 14/52/4 26/41/4 53/66/4 46/65/4
f 35/54/16 36/53/16 47/69/16 60/72/16
f 13/51/3 14/52/3 46/65/3 45/64/3
f 26/41/17 25/40/17 52/63/17 53/66/17
f 33/55/5 18/9/5 49/12/5 58/67/5
f 15/50/5 27/45/5 54/62/5 44/61/5
f 34/56/18 33/55/18 58/67/18 59/68/18
f 27/45/19 28/44/19 42/59/19 54/62/19
f 19/10/4 34/56/4 59/68/4 50/11/4
f 20/38/5 35/54/5 60/72/5 51/71/5
f 32/49/20 29/48/20 37/57/20 57/58/20
f 29/73/4 10/74/4 38/75/4 37/76/4
f 31/14/21 30/29/21 55/32/21 56/15/21
f 9/30/3 11/13/3 40/16/3 39/31/3
f 22/33/22 62/5/22 63/8/22 23/34/22
f 21/36/23 61/1/23 64/4/23 24/37/23
f 26/41/4 28/21/4 8/43/4 4/42/4
f 31/14/24 29/73/24 16/47/24 14/52/24
f 34/56/25 36/25/25 10/17/25 11/13/25
f 23/34/4 21/36/4 17/35/4 19/10/4
f 63/8/4 61/1/4 21/36/4 23/34/4
f 61/1/4 63/8/4 3/7/4 7/2/4
f 28/21/4 26/41/4 14/52/4 16/22/4
f 29/73/4 31/14/4 11/13/4 10/74/4
f 1/6/3 5/3/3 7/2/3 3/7/3
f 36/25/4 34/56/4 19/10/4 17/26/4
f 62/5/5 64/4/5 5/3/5 1/6/5
f 22/33/5 24/37/5 64/4/5 62/5/5
f 20/38/5 24/37/5 22/33/5 18/9/5
f 18/77/4 20/78/4 35/79/4 33/80/4
f 9/30/4 12/18/4 32/49/4 30/29/4
f 15/50/4 27/45/4 25/40/4 13/51/4
f 9/30/26 12/18/26 35/54/26 33/80/26
f 13/51/27 15/50/27 32/49/27 30/29/27
f 2/39/5 6/46/5 27/45/5 25/40/5
l 13 65
