# Blender 3.6.2
# www.blender.org
mtllib paris_hero_01_.mtl
o Cube
v 0.515192 -1.122758 -1.337280
v 0.515192 -1.122758 1.337280
v -0.515192 -1.122758 -1.337280
v -0.515192 -1.122758 1.337280
v 0.632425 1.043515 -1.527918
v 0.580396 0.585316 -1.479475
v 0.529144 0.045812 -1.379347
v 0.513457 -0.460908 -1.329993
v -0.513705 -0.460908 1.333040
v -0.528412 0.230896 1.395064
v -0.578256 0.776259 1.482523
v -0.624380 1.291759 1.518269
v 0.632425 1.291759 1.530965
v 0.580396 0.776259 1.482523
v 0.529144 0.230896 1.395064
v 0.513457 -0.460908 1.333040
v -0.624380 1.043515 -1.515221
v -0.578256 0.585316 -1.479475
v -0.528412 0.045812 -1.379347
v -0.513705 -0.459249 -1.329993
v -0.499963 1.917802 1.375114
v 0.507275 1.653705 -1.425002
v 0.507275 1.905914 1.370975
v -0.499963 1.694035 -1.440928
v -0.003835 1.857252 1.018451
v -0.004122 1.720069 -1.074056
v -0.515192 -1.122758 -0.445760
v -0.515192 -1.122758 0.445760
v 0.515192 -1.122758 0.445760
v 0.515192 -1.122758 -0.445760
v 0.513457 -0.460908 -0.442315
v 0.513457 -0.460908 0.445363
v 0.529144 0.045812 -0.458766
v 0.529144 0.095123 0.461814
v 0.580396 0.585316 -0.492143
v 0.580396 0.636189 0.495190
v 0.632425 1.064386 -0.513979
v 0.632425 1.146797 0.517027
v -0.513705 -0.460908 0.445363
v -0.513705 -0.460908 -0.442315
v -0.528412 0.095123 0.461814
v -0.528412 0.045812 -0.458766
v -0.578256 0.636189 0.495190
v -0.578256 0.585316 -0.492143
v -0.624380 1.146797 0.517027
v -0.624380 1.064386 -0.513979
v 0.507275 1.653705 -0.414396
v 0.507275 1.720901 0.417052
v -0.499963 1.762639 0.417052
v -0.499963 1.695444 -0.414396
v -0.003831 1.724532 -0.286891
v -0.003833 1.747859 0.284394
v 0.000000 -1.122758 -1.337280
v 0.000000 -1.122758 1.337280
v -0.000124 -0.460908 -1.329993
v 0.000366 0.045812 -1.379347
v 0.001070 0.585316 -1.479475
v 0.004023 1.052547 -1.544985
v -0.000124 -0.460908 1.333040
v 0.000366 0.230896 1.395064
v 0.001070 0.776259 1.482523
v 0.004023 1.300114 1.548033
v 0.003656 1.653705 -1.425002
v 0.025696 1.925701 1.370975
v 0.640027 1.086087 -1.562745
v 0.640027 1.329639 1.565793
v -0.631982 1.091946 -1.554992
v -0.631982 1.335908 1.558040
v -0.631982 1.187998 0.527766
v -0.631982 1.109547 -0.524718
v 0.640027 1.103482 -0.524718
v 0.640027 1.181933 0.527766
v 0.003971 1.307727 1.512012
v 0.004023 1.086087 -1.577201
v 0.673298 1.053905 -1.584232
v -0.665253 1.322196 1.574116
v 0.673298 1.322196 1.587280
v -0.665253 1.053905 -1.571068
v 0.694473 1.072451 -0.549871
v 0.694473 1.164335 0.552918
v -0.686428 1.164335 0.552918
v -0.686428 1.072451 -0.549871
v 0.004023 1.049181 -1.652660
v 0.004023 1.325961 1.655708
v 0.672649 1.068840 -1.585705
v 0.672649 1.330623 1.588753
v -0.664604 1.075139 -1.577839
v -0.664604 1.337361 1.580886
v -0.685759 1.178081 0.552384
v -0.685759 1.091090 -0.549336
v 0.693804 1.084365 -0.549336
v 0.693804 1.171356 0.552384
v 0.004023 1.335141 1.654104
v 0.004023 1.065076 -1.651056
v -0.534927 -1.906383 0.462835
v -0.534927 -1.906383 1.388504
v 0.000000 -1.906383 -1.388504
v -0.534927 -1.906383 -1.388504
v 0.000000 -1.906383 1.388504
v 0.534927 -1.906383 1.388504
v 0.534927 -1.906383 -0.462835
v 0.534927 -1.906383 -1.388504
v -0.534927 -1.906383 -0.462835
v 0.534927 -1.906383 0.462835
v 0.000000 -1.906383 -0.462835
v 0.000000 -1.906383 0.462835
v 0.251576 1.686887 -1.249529
v 0.251722 1.689118 -0.350644
v 0.251721 1.734380 0.350723
v 0.251720 1.881583 1.194713
v -0.251899 1.887527 1.196783
v -0.251897 1.709988 -0.350644
v -0.252042 1.707052 -1.257492
v -0.251898 1.755249 0.350723
vn -0.0000 0.0652 0.9979
vn -0.0000 0.0110 -0.9999
vn -0.0000 -0.0969 -0.9953
vn -0.0000 -0.1825 -0.9832
vn 0.0131 -0.1230 -0.9923
vn 1.0000 0.0026 -0.0000
vn 0.9997 -0.0253 0.0019
vn 0.9953 -0.0954 0.0137
vn 0.9947 -0.1019 0.0145
vn -1.0000 0.0022 -0.0000
vn -0.9996 -0.0291 -0.0000
vn -0.9958 -0.0920 -0.0000
vn -0.9952 -0.0979 0.0010
vn -0.0000 0.0064 1.0000
vn -0.0000 -0.0893 0.9960
vn -0.0000 -0.1583 0.9874
vn -0.0238 -0.0979 0.9949
vn 0.0123 0.2488 -0.9685
vn 0.9744 0.2218 -0.0371
vn -0.9761 0.2173 -0.0020
vn 0.0462 0.2549 0.9659
vn -0.0000 0.9826 -0.1858
vn 0.0551 0.9855 -0.1603
vn -0.0533 0.9986 -0.0043
vn -0.0162 0.9818 -0.1893
vn 0.0005 0.9885 -0.1512
vn -0.0147 0.9984 -0.0538
vn 0.1312 0.9914 -0.0040
vn 0.0954 0.9940 -0.0536
vn -0.9762 0.2146 -0.0327
vn -0.9749 0.2218 -0.0171
vn 0.9728 0.2315 -0.0020
vn 0.9714 0.2368 -0.0183
vn -0.9958 -0.0903 0.0129
vn -0.9957 -0.0928 0.0061
vn -0.9956 -0.0928 0.0133
vn -0.9958 -0.0919 0.0048
vn -0.9997 -0.0237 0.0018
vn -0.9996 -0.0277 0.0008
vn 0.9939 -0.1103 0.0011
vn 0.9945 -0.1046 0.0069
vn 0.9955 -0.0946 -0.0000
vn 0.9955 -0.0944 0.0050
vn 0.9995 -0.0309 -0.0000
vn 0.9996 -0.0295 0.0008
vn -0.0000 0.0652 -0.9979
vn 0.9997 0.0252 -0.0000
vn -0.9997 0.0252 -0.0000
vn 0.0403 0.9802 -0.1937
vn 0.0842 0.9794 -0.1833
vn -0.0468 0.2664 0.9627
vn 0.0036 0.2216 -0.9751
vn 0.0133 -0.1097 0.9939
vn -0.0237 -0.1098 -0.9937
vn -0.0002 -0.0971 -0.9953
vn 0.3792 0.9251 -0.0185
vn -0.0187 -0.9468 0.3212
vn 0.2654 0.9613 -0.0738
vn 0.3107 -0.9398 0.1422
vn 0.0194 0.9321 -0.3618
vn -0.0004 -0.9991 -0.0428
vn -0.0146 0.9859 -0.1667
vn 0.1861 0.9722 -0.1420
vn -0.0149 0.9329 -0.3598
vn -0.3689 0.9293 -0.0189
vn -0.1154 -0.1349 -0.9841
vn 0.0996 0.0111 0.9950
vn 0.9975 0.0705 -0.0057
vn 0.9986 0.0483 -0.0212
vn -0.9991 0.0413 -0.0034
vn -0.9990 0.0425 0.0141
vn -0.1123 -0.2034 0.9726
vn -0.9993 0.0297 -0.0211
vn 0.9964 0.0846 0.0074
vn 0.0995 0.0063 -0.9950
vn 0.1911 -0.9814 0.0169
vn -0.2544 0.9643 -0.0741
vn -0.3098 -0.9398 0.1440
vn 0.2014 -0.9763 0.0797
vn -0.1743 0.9742 -0.1436
vn -0.0005 -0.9991 -0.0429
vn -0.2014 -0.9763 0.0797
vn 0.0124 -0.9467 0.3218
vn -0.1912 -0.9814 0.0171
vn 0.0265 0.9856 -0.1673
vn -0.0000 -1.0000 -0.0000
vn 0.0953 0.9928 -0.0728
vn 0.1324 0.9912 -0.0012
vn 0.0652 0.9813 -0.1813
vn -0.0148 0.9972 -0.0732
vn -0.0026 0.9875 -0.1573
vn -0.0544 0.9985 -0.0022
vt 0.375000 0.750000
vt 0.375000 0.875000
vt 0.375000 0.375000
vt 0.436886 0.375000
vt 0.436886 0.500000
vt 0.375000 0.500000
vt 0.486886 0.375000
vt 0.486886 0.500000
vt 0.536886 0.375000
vt 0.536886 0.500000
vt 0.586886 0.375000
vt 0.586886 0.500000
vt 0.375000 0.666667
vt 0.436886 0.666667
vt 0.436886 0.750000
vt 0.486886 0.666667
vt 0.486886 0.750000
vt 0.536886 0.666667
vt 0.536886 0.750000
vt 0.586886 0.666667
vt 0.586886 0.750000
vt 0.375000 0.166667
vt 0.436886 0.166667
vt 0.436886 0.250000
vt 0.375000 0.250000
vt 0.486886 0.166667
vt 0.486886 0.250000
vt 0.536886 0.166667
vt 0.536886 0.250000
vt 0.586886 0.166667
vt 0.586886 0.250000
vt 0.436886 0.875000
vt 0.436886 1.000000
vt 0.375000 1.000000
vt 0.486886 0.875000
vt 0.486886 1.000000
vt 0.536886 0.875000
vt 0.536886 1.000000
vt 0.586886 0.875000
vt 0.586886 1.000000
vt 0.590354 0.375000
vt 0.605943 0.375000
vt 0.605943 0.500000
vt 0.590354 0.500000
vt 0.590354 0.666667
vt 0.605943 0.666667
vt 0.605943 0.750000
vt 0.590354 0.750000
vt 0.590354 0.166667
vt 0.605943 0.166667
vt 0.605943 0.250000
vt 0.590354 0.250000
vt 0.590354 0.875000
vt 0.605943 0.875000
vt 0.605943 1.000000
vt 0.590354 1.000000
vt 0.615471 0.500000
vt 0.610707 0.500000
vt 0.610707 0.666667
vt 0.615471 0.666667
vt 0.615471 0.750000
vt 0.610707 0.750000
vt 0.610707 0.166667
vt 0.615471 0.166667
vt 0.615471 0.250000
vt 0.610707 0.250000
vt 0.615471 1.000000
vt 0.610707 1.000000
vt 0.610707 0.000000
vt 0.615471 0.000000
vt 0.615471 0.083333
vt 0.610707 0.083333
vt 0.615471 0.583333
vt 0.610707 0.583333
vt 0.590354 0.000000
vt 0.605943 0.000000
vt 0.605943 0.083333
vt 0.590354 0.083333
vt 0.605943 0.583333
vt 0.590354 0.583333
vt 0.536886 0.000000
vt 0.586886 0.000000
vt 0.586886 0.083333
vt 0.536886 0.083333
vt 0.486886 0.000000
vt 0.486886 0.083333
vt 0.436886 0.000000
vt 0.436886 0.083333
vt 0.375000 0.000000
vt 0.375000 0.083333
vt 0.586886 0.583333
vt 0.536886 0.583333
vt 0.486886 0.583333
vt 0.436886 0.583333
vt 0.375000 0.583333
vt 0.610707 0.812500
vt 0.615471 0.875000
vt 0.610707 0.312500
vt 0.615471 0.375000
vt 0.250000 0.666667
vt 0.250000 0.750000
vt 0.250000 0.500000
vt 0.250000 0.583333
vt 0.125000 0.583333
vt 0.125000 0.666667
vt 0.125000 0.500000
vt 0.125000 0.750000
s 0
usemtl Material
f 2/1/1 54/2/1 99/2/1 100/1/1
f 53/3/2 55/4/2 8/5/2 1/6/2
f 55/4/3 56/7/3 7/8/3 8/5/3
f 56/7/4 57/9/4 6/10/4 7/8/4
f 57/9/5 58/11/5 5/12/5 6/10/5
f 29/13/6 32/14/6 16/15/6 2/1/6
f 32/14/7 34/16/7 15/17/7 16/15/7
f 34/16/8 36/18/8 14/19/8 15/17/8
f 36/18/9 38/20/9 13/21/9 14/19/9
f 27/22/10 40/23/10 20/24/10 3/25/10
f 40/23/11 42/26/11 19/27/11 20/24/11
f 42/26/12 44/28/12 18/29/12 19/27/12
f 44/28/13 46/30/13 17/31/13 18/29/13
f 54/2/14 59/32/14 9/33/14 4/34/14
f 59/32/15 60/35/15 10/36/15 9/33/15
f 60/35/16 61/37/16 11/38/16 10/36/16
f 61/37/17 62/39/17 12/40/17 11/38/17
f 74/41/18 63/42/18 22/43/18 65/44/18
f 72/45/19 48/46/19 23/47/19 66/48/19
f 70/49/20 50/50/20 24/51/20 67/52/20
f 73/53/21 64/54/21 21/55/21 68/56/21
f 63/42/22 26/57/22 107/58/22 22/43/22
f 109/59/23 52/60/23 25/61/23 110/62/23
f 112/63/24 51/64/24 26/65/24 113/66/24
f 64/54/25 25/67/25 111/68/25 21/55/25
f 111/69/26 25/70/26 52/71/26 114/72/26
f 114/72/27 52/71/27 51/64/27 112/63/27
f 107/58/28 26/57/28 51/73/28 108/74/28
f 108/74/29 51/73/29 52/60/29 109/59/29
f 68/75/30 21/76/30 49/77/30 69/78/30
f 69/78/31 49/77/31 50/50/31 70/49/31
f 65/44/32 22/43/32 47/79/32 71/80/32
f 71/80/33 47/79/33 48/46/33 72/45/33
f 11/81/34 12/82/34 45/83/34 43/84/34
f 43/84/35 45/83/35 46/30/35 44/28/35
f 10/85/36 11/81/36 43/84/36 41/86/36
f 41/86/37 43/84/37 44/28/37 42/26/37
f 9/87/38 10/85/38 41/86/38 39/88/38
f 39/88/39 41/86/39 42/26/39 40/23/39
f 4/89/10 9/87/10 39/88/10 28/90/10
f 28/90/10 39/88/10 40/23/10 27/22/10
f 6/10/40 5/12/40 37/91/40 35/92/40
f 35/92/41 37/91/41 38/20/41 36/18/41
f 7/8/42 6/10/42 35/92/42 33/93/42
f 33/93/43 35/92/43 36/18/43 34/16/43
f 8/5/44 7/8/44 33/93/44 31/94/44
f 31/94/45 33/93/45 34/16/45 32/14/45
f 1/6/6 8/5/6 31/94/6 30/95/6
f 30/95/6 31/94/6 32/14/6 29/13/6
f 3/25/46 53/3/46 97/3/46 98/25/46
f 1/6/47 30/95/47 101/95/47 102/6/47
f 54/2/1 4/34/1 96/34/1 99/2/1
f 4/89/48 28/90/48 95/90/48 96/89/48
f 23/47/49 110/96/49 25/97/49 64/54/49
f 24/51/50 113/98/50 26/99/50 63/42/50
f 66/48/51 23/47/51 64/54/51 73/53/51
f 67/52/52 24/51/52 63/42/52 74/41/52
f 14/19/53 13/21/53 62/39/53 61/37/53
f 15/17/16 14/19/16 61/37/16 60/35/16
f 16/15/15 15/17/15 60/35/15 59/32/15
f 2/1/14 16/15/14 59/32/14 54/2/14
f 18/29/54 17/31/54 58/11/54 57/9/54
f 19/27/4 18/29/4 57/9/4 56/7/4
f 20/24/55 19/27/55 56/7/55 55/4/55
f 3/25/2 20/24/2 55/4/2 53/3/2
f 28/90/48 27/22/48 103/22/48 95/90/48
f 65/44/56 71/80/56 91/80/56 85/44/56
f 12/40/57 62/39/57 84/39/57 76/40/57
f 71/80/58 72/45/58 92/45/58 91/80/58
f 13/21/59 38/20/59 80/20/59 77/21/59
f 74/41/60 65/44/60 85/44/60 94/41/60
f 58/11/61 17/31/61 78/31/61 83/11/61
f 66/48/62 73/53/62 93/53/62 86/48/62
f 72/45/63 66/48/63 86/48/63 92/45/63
f 67/52/64 74/41/64 94/41/64 87/52/64
f 70/49/65 67/52/65 87/52/65 90/49/65
f 78/31/66 87/52/66 94/41/66 83/11/66
f 77/21/67 86/48/67 93/53/67 84/39/67
f 79/91/68 91/80/68 92/45/68 80/20/68
f 75/12/69 85/44/69 91/80/69 79/91/69
f 81/83/70 89/78/70 90/49/70 82/30/70
f 76/82/71 88/75/71 89/78/71 81/83/71
f 84/39/72 93/53/72 88/56/72 76/40/72
f 82/30/73 90/49/73 87/52/73 78/31/73
f 80/20/74 92/45/74 86/48/74 77/21/74
f 83/11/75 94/41/75 85/44/75 75/12/75
f 37/91/76 5/12/76 75/12/76 79/91/76
f 69/78/77 70/49/77 90/49/77 89/78/77
f 45/83/78 12/82/78 76/82/78 81/83/78
f 38/20/79 37/91/79 79/91/79 80/20/79
f 68/75/80 69/78/80 89/78/80 88/75/80
f 5/12/81 58/11/81 83/11/81 75/12/81
f 46/30/82 45/83/82 81/83/82 82/30/82
f 62/39/83 13/21/83 77/21/83 84/39/83
f 17/31/84 46/30/84 82/30/84 78/31/84
f 73/53/85 68/56/85 88/56/85 93/53/85
f 106/100/86 104/13/86 100/1/86 99/101/86
f 97/102/86 102/6/86 101/95/86 105/103/86
f 105/103/86 101/95/86 104/13/86 106/100/86
f 103/104/86 105/103/86 106/100/86 95/105/86
f 98/106/86 97/102/86 105/103/86 103/104/86
f 95/105/86 106/100/86 99/101/86 96/107/86
f 29/13/47 2/1/47 100/1/47 104/13/47
f 53/3/46 1/6/46 102/6/46 97/3/46
f 27/22/48 3/25/48 98/25/48 103/22/48
f 30/95/47 29/13/47 104/13/47 101/95/47
f 47/79/87 108/74/87 109/59/87 48/46/87
f 22/43/88 107/58/88 108/74/88 47/79/88
f 48/46/89 109/59/89 110/62/89 23/47/89
f 49/77/90 114/72/90 112/63/90 50/50/90
f 21/76/91 111/69/91 114/72/91 49/77/91
f 50/50/92 112/63/92 113/66/92 24/51/92
