# Blender v3.6.2 OBJ File: 'paris_block_end_02_.blend'
# www.blender.org
mtllib paris_block_end_02_.mtl
o Cube
v 0.097891 1.000000 -0.800000
v 0.600000 -1.000000 -0.800000
v 0.097891 1.000000 0.800000
v 0.600000 -1.000000 0.800000
v -0.098697 1.000000 -0.800000
v -0.600000 -1.000000 -0.800000
v -0.098697 1.000000 0.800000
v -0.600000 -0.987460 0.800000
v -0.000403 1.000000 0.800000
v -0.021621 -1.012904 1.105013
v 0.651818 0.000000 -0.813703
v -0.618704 0.000000 0.786297
v 0.651818 0.000000 0.786297
v -0.618704 0.000000 -0.813703
v -0.021944 -0.028428 1.153230
v 0.600000 -0.500000 -0.800000
v 0.600000 -0.500000 0.800000
v -0.600000 -0.500000 -0.800000
v -0.021621 -0.512904 1.117901
v -0.639696 -0.500000 0.800000
v -0.663212 0.487504 0.800000
v 0.668605 0.522326 -0.800000
v 0.668605 0.522326 0.800000
v -0.663212 0.487504 -0.800000
v -0.022024 0.533989 1.209652
v -0.546733 0.750000 0.800000
v 0.545928 0.775656 -0.800000
v 0.545928 0.775656 0.800000
v -0.546733 0.750000 -0.800000
v -0.022024 0.737096 1.152116
v 0.600000 -0.537460 -0.800000
v 0.600000 -0.537460 0.800000
v -0.600000 -0.550000 -0.800000
v -0.021621 -0.562904 1.117901
v -0.600000 -0.537460 0.800000
v -0.618404 -0.040824 0.786297
v 0.645617 -0.035578 -0.813703
v 0.645617 -0.035578 0.786297
v -0.618404 -0.040824 -0.813703
v -0.021944 -0.078428 1.153230
v 0.676379 0.489097 -0.800000
v 0.676379 0.489097 0.800000
v -0.663212 0.448730 -0.800000
v -0.022024 0.483989 1.209652
v -0.663212 0.448730 0.800000
v -0.680644 -0.045412 0.786297
v -0.680809 0.000000 0.786297
v 0.715829 0.000000 -0.813703
v 0.716491 0.000000 0.786297
v -0.681471 0.000000 -0.813703
v -0.659544 -0.543730 0.800000
v -0.660000 -0.500000 -0.800000
v 0.659794 -0.500000 -0.800000
v 0.660456 -0.500000 0.800000
v -0.728561 0.443117 0.800000
v -0.728501 0.487504 0.800000
v 0.734474 0.522326 -0.800000
v 0.735136 0.522326 0.800000
v -0.728501 0.487504 -0.800000
v 0.659794 -0.543730 -0.800000
v 0.660913 -0.537460 0.800000
v -0.660000 -0.550000 -0.800000
v 0.712418 -0.042789 -0.813703
v 0.713080 -0.042789 0.786297
v -0.681306 -0.045412 -0.813703
v 0.738749 0.480711 -0.800000
v 0.739412 0.480711 0.800000
v -0.728501 0.437504 -0.800000
v -0.378271 0.886995 0.800000
v 0.377465 0.899823 -0.800000
v 0.377465 0.899823 0.800000
v -0.378271 0.886995 -0.800000
v -0.000403 0.886995 1.104709
v -0.049550 1.000000 0.800000
v -0.321621 -1.006634 1.105013
v -0.331135 -0.028428 1.116591
v -0.321621 -0.512904 1.105013
v -0.353429 0.527741 1.184424
v -0.273568 0.750000 1.132345
v -0.321621 -0.556634 1.105013
v -0.330985 -0.073840 1.116591
v -0.353429 0.483354 1.184424
v -0.189337 0.886995 1.075464
v 0.278379 -1.012904 1.105013
v 0.048744 1.000000 0.800000
v 0.304126 -0.028428 1.116591
v 0.278379 -0.512904 1.105013
v 0.312480 0.545152 1.155003
v 0.272762 0.762828 1.102924
v 0.278379 -0.556634 1.105013
v 0.301025 -0.071217 1.116591
v 0.316367 0.503537 1.155003
v 0.188531 0.893409 1.075464
v -0.660412 -0.500000 -0.800000
v -0.660412 -0.550000 -0.800000
v -0.729945 0.487504 -0.800000
v 0.335451 -0.028428 1.171169
v -0.023226 -0.028428 1.210936
v -0.363336 -0.028428 1.171169
v -0.352871 -0.512904 1.159591
v 0.307129 -0.512904 1.159591
v -0.022871 -0.512904 1.178806
v -0.728620 0.487504 0.800000
v 0.344640 0.545152 1.209581
v -0.023314 0.533989 1.283445
v -0.387859 0.527741 1.239002
v -0.022871 -0.562904 1.178806
v 0.307129 -0.556634 1.159591
v -0.352871 -0.556634 1.159591
v -0.023226 -0.078428 1.210936
v -0.363171 -0.073840 1.171169
v 0.332040 -0.071217 1.171169
v -0.023314 0.483989 1.283445
v -0.387859 0.483354 1.239002
v 0.348916 0.503537 1.209581
vt 0.609375 0.500000
vt 0.609375 0.250000
vt 0.625000 0.250000
vt 0.625000 0.500000
vt 0.609375 0.937500
vt 0.625000 0.937500
vt 0.625000 1.000000
vt 0.609375 1.000000
vt 0.609375 0.000000
vt 0.625000 0.000000
vt 0.556250 0.250000
vt 0.556250 0.500000
vt 0.562500 0.500000
vt 0.562500 0.250000
vt 0.625000 0.750000
vt 0.609375 0.750000
vt 0.609375 0.812500
vt 0.625000 0.812500
vt 0.625000 0.875000
vt 0.609375 0.875000
vt 0.500000 0.937500
vt 0.500000 1.000000
vt 0.500000 1.000000
vt 0.500000 0.937500
vt 0.562500 0.750000
vt 0.562500 0.750000
vt 0.562500 0.500000
vt 0.500000 0.750000
vt 0.493750 0.750000
vt 0.493750 0.750000
vt 0.500000 0.750000
vt 0.562500 1.000000
vt 0.556250 1.000000
vt 0.556250 1.000000
vt 0.562500 1.000000
vt 0.493750 0.812500
vt 0.493750 0.812500
vt 0.500000 0.000000
vt 0.500000 0.250000
vt 0.500000 0.250000
vt 0.500000 0.000000
vt 0.431250 1.000000
vt 0.437500 1.000000
vt 0.431250 1.000000
vt 0.556250 0.937500
vt 0.556250 0.937500
vt 0.437500 0.812500
vt 0.437500 0.875000
vt 0.437500 0.875000
vt 0.437500 0.812500
vt 0.562500 1.000000
vt 0.493750 0.500000
vt 0.500000 0.500000
vt 0.500000 0.500000
vt 0.493750 0.500000
vt 0.493750 0.937500
vt 0.493750 0.875000
vt 0.493750 0.875000
vt 0.493750 0.937500
vt 0.562500 0.812500
vt 0.593750 0.812500
vt 0.593750 0.875000
vt 0.562500 0.875000
vt 0.593750 0.500000
vt 0.593750 0.750000
vt 0.562500 0.000000
vt 0.593750 0.000000
vt 0.593750 0.250000
vt 0.562500 0.937500
vt 0.593750 0.937500
vt 0.593750 1.000000
vt 0.375000 0.812500
vt 0.431250 0.812500
vt 0.431250 0.875000
vt 0.375000 0.875000
vt 0.375000 0.500000
vt 0.431250 0.500000
vt 0.431250 0.750000
vt 0.375000 0.750000
vt 0.375000 0.000000
vt 0.431250 0.000000
vt 0.431250 0.250000
vt 0.375000 0.250000
vt 0.375000 0.937500
vt 0.431250 0.937500
vt 0.375000 1.000000
vt 0.437500 0.937500
vt 0.493750 1.000000
vt 0.437500 0.000000
vt 0.493750 0.000000
vt 0.493750 0.250000
vt 0.437500 0.250000
vt 0.437500 0.500000
vt 0.437500 0.750000
vt 0.556250 0.000000
vt 0.556250 0.750000
vt 0.500000 0.812500
vt 0.556250 0.812500
vt 0.556250 0.875000
vt 0.500000 0.875000
vt 0.493750 0.000000
vt 0.493750 0.250000
vt 0.431250 0.000000
vt 0.437500 0.250000
vt 0.431250 0.250000
vt 0.431250 0.500000
vt 0.437500 0.500000
vt 0.437500 0.750000
vt 0.431250 0.750000
vt 0.556250 0.500000
vt 0.556250 0.750000
vt 0.556250 0.000000
vt 0.562500 0.000000
vt 0.562500 0.250000
vt 0.556250 0.250000
vt 0.493750 1.000000
vt 0.431250 0.875000
vt 0.431250 0.937500
vt 0.562500 0.937500
vt 0.431250 0.812500
vt 0.500000 0.875000
vt 0.500000 0.812500
vt 0.437500 0.250000
vt 0.431250 0.250000
vt 0.437500 0.937500
vt 0.556250 0.812500
vt 0.562500 0.812500
vt 0.562500 0.875000
vt 0.556250 0.875000
vn 0.0000 0.0000 -1.0000
vn -0.3130 0.9104 0.2705
vn -0.3747 0.9271 0.0000
vn 0.0000 0.0000 1.0000
vn 0.3373 0.9414 0.0000
vn 0.0178 0.9365 0.3502
vn 0.0308 0.9981 0.0533
vn 0.0000 1.0000 0.0000
vn -0.0150 -0.9944 -0.1043
vn 0.0738 -0.9968 0.0323
vn -0.0137 -0.9999 -0.0041
vn 0.1421 0.2621 0.9545
vn 0.9000 0.4358 0.0000
vn -0.9141 0.4056 0.0000
vn -0.7338 0.3592 0.5766
vn 0.0216 -0.0142 0.9997
vn 1.0000 0.0000 0.0000
vn -1.0000 0.0000 0.0000
vn -0.7386 0.0000 0.6741
vn -0.7234 0.0112 0.6903
vn -0.9999 0.0028 -0.0124
vn 0.9952 -0.0978 0.0000
vn 0.0798 -0.0553 0.9953
vn -0.7624 -0.1072 0.6381
vn -0.9951 -0.0987 0.0000
vn 0.9987 -0.0502 0.0000
vn 0.1382 -0.0912 0.9862
vn 0.9968 -0.0795 -0.0004
vn -1.0000 -0.0036 0.0004
vn -0.9783 0.2072 0.0059
vn 1.0000 0.0056 -0.0006
vn 0.9948 0.1022 -0.0004
vn -1.0000 0.0006 -0.0000
vn 0.1278 -0.9918 0.0017
vn -0.0519 -0.9987 0.0020
vn -0.1326 -0.9912 0.0000
vn 0.0524 -0.9986 0.0059
vn 0.0731 -0.9973 -0.0000
vn -0.1068 -0.9943 0.0000
vn 0.1351 0.2836 0.9494
vn 0.5933 0.8050 0.0000
vn -0.6309 0.7758 0.0000
vn -0.6036 0.6520 0.4589
vn -0.0920 0.3700 0.9245
vn -0.0953 -0.1219 0.9880
vn -0.0813 -0.0543 0.9952
vn -0.0218 -0.0143 0.9997
vn -0.0713 0.2614 0.9626
vn -0.0196 -0.9998 -0.0055
vn -0.0372 0.9970 -0.0680
vn -0.0434 0.9344 0.3535
vn 0.5905 0.6389 0.4930
vn 0.6949 -0.0616 0.7164
vn 0.6912 -0.0504 0.7209
vn 0.6881 0.0000 0.7256
vn 0.6894 0.3101 0.6547
vn 0.0217 -0.9991 -0.0356
vn 0.2811 0.9225 0.2645
vn 0.0001 -0.0297 -0.9996
vn -0.0005 0.0292 -0.9996
vn 0.1108 -0.0041 0.9938
vn -0.7715 -0.0028 0.6362
vn -0.7568 0.1717 0.6307
vn 0.0581 0.0000 0.9983
vn 0.1953 0.0091 0.9807
vn -0.7900 -0.0005 0.6132
vn -0.1210 0.0000 0.9927
vn -0.0581 0.0000 0.9983
vn -0.1162 -0.0002 0.9932
vn 0.7238 0.0744 0.6860
vn 0.7130 0.0040 0.7012
vn 0.7116 -0.0567 0.7003
vn -0.0007 -0.9964 -0.0850
vn 0.0018 -1.0000 0.0005
vn -0.0738 -0.9970 -0.0239
vn -0.0286 0.9983 0.0503
vn 0.0197 -0.9998 -0.0047
vn 0.0526 -0.9985 -0.0128
vn -0.0146 0.9996 0.0239
vn 0.0206 -0.9998 -0.0055
vn -0.0304 0.9995 0.0073
vn 0.0214 0.9990 -0.0387
vn 0.0261 -0.9971 -0.0711
vn -0.0175 0.9998 -0.0049
vn 0.0262 0.9995 0.0150
usemtl Material
s off
f 70/1/1 72/2/1 5/3/1 1/4/1
f 83/5/2 74/6/2 7/7/2 69/8/2
f 69/9/3 7/10/3 5/3/3 72/2/3
f 43/11/4 41/12/4 22/13/4 24/14/4
f 70/1/5 1/4/5 3/15/5 71/16/5
f 93/17/6 85/18/6 9/19/6 73/20/6
f 76/21/7 12/22/7 47/23/7 99/24/7
f 22/13/8 23/25/8 58/26/8 57/27/8
f 13/28/4 38/29/4 64/30/4 49/31/4
f 21/32/1 45/33/1 55/34/1 103/35/1
f 91/36/9 38/29/9 64/30/9 112/37/9
f 12/38/8 14/39/8 50/40/8 47/41/8
f 35/42/4 20/43/4 51/44/4
f 45/33/10 82/45/10 114/46/10 55/34/10
f 87/47/8 19/48/8 102/49/8 101/50/8
f 45/33/4 21/32/4 56/51/4 55/34/4
f 37/52/1 11/53/1 48/54/1 63/55/1
f 81/56/11 40/57/11 110/58/11 111/59/11
f 88/60/12 89/61/12 30/62/12 25/63/12
f 22/13/13 27/64/13 28/65/13 23/25/13
f 21/66/14 26/67/14 29/68/14 24/14/14
f 78/69/15 79/70/15 26/71/15 21/32/15
f 84/72/16 90/73/16 34/74/16 10/75/16
f 2/76/17 31/77/17 32/78/17 4/79/17
f 8/80/18 35/81/18 33/82/18 6/83/18
f 75/84/19 80/85/19 35/42/19 8/86/19
f 77/87/20 81/56/20 36/88/20 20/43/20
f 20/89/21 36/90/21 39/91/21 18/92/21
f 16/93/22 37/52/22 38/29/22 17/94/22
f 87/47/23 91/36/23 40/57/23 19/48/23
f 76/21/24 82/45/24 45/33/24 12/22/24
f 12/38/25 45/95/25 43/11/25 14/39/25
f 11/53/26 41/12/26 42/96/26 13/28/26
f 86/97/27 92/98/27 44/99/27 15/100/27
f 63/55/28 48/54/28 49/31/28 64/30/28
f 46/101/29 47/41/29 50/40/29 65/102/29
f 51/103/30 20/89/30 52/104/30 62/105/30
f 60/106/31 53/107/31 54/108/31 61/109/31
f 66/110/32 57/27/32 58/26/32 67/111/32
f 55/112/33 56/113/33 59/114/33 68/115/33
f 31/77/1 16/93/1 53/107/1 60/106/1
f 14/39/1 39/91/1 65/102/1 50/40/1
f 20/89/8 18/92/8 52/104/8
f 21/66/8 24/14/8 59/114/8 56/113/8
f 17/94/4 32/78/4 61/109/4 54/108/4
f 43/11/34 45/95/34 55/112/34 68/115/34
f 16/93/8 17/94/8 54/108/8 53/107/8
f 32/78/35 31/77/35 60/106/35 61/109/35
f 41/12/1 22/13/1 57/27/1 66/110/1
f 18/92/1 33/82/1 62/105/1 52/104/1
f 42/96/36 41/12/36 66/110/36 67/111/36
f 33/82/37 35/81/37 51/103/37 62/105/37
f 23/25/4 42/96/4 67/111/4 58/26/4
f 24/14/1 43/11/1 68/115/1 59/114/1
f 39/91/38 36/90/38 46/101/38 65/102/38
f 36/88/4 12/22/4 47/23/4 46/116/4
f 38/29/39 37/52/39 63/55/39 64/30/39
f 11/53/8 13/28/8 49/31/8 48/54/8
f 89/61/40 93/17/40 73/20/40 30/62/40
f 27/64/41 70/1/41 71/16/41 28/65/41
f 26/67/42 69/9/42 72/2/42 29/68/42
f 79/70/43 83/5/43 69/8/43 26/71/43
f 30/62/44 73/20/44 83/5/44 79/70/44
f 15/100/45 44/99/45 82/45/45 76/21/45
f 19/48/46 40/57/46 81/56/46 77/87/46
f 10/75/47 34/74/47 80/85/47 75/84/47
f 25/63/48 30/62/48 79/70/48 78/69/48
f 80/85/49 34/74/49 107/117/49 109/118/49
f 78/69/50 21/32/50 103/35/50 106/119/50
f 73/20/51 9/19/51 74/6/51 83/5/51
f 28/65/52 71/16/52 93/17/52 89/61/52
f 13/28/53 42/96/53 92/98/53 86/97/53
f 17/94/54 38/29/54 91/36/54 87/47/54
f 4/79/55 32/78/55 90/73/55 84/72/55
f 23/25/56 28/65/56 89/61/56 88/60/56
f 90/73/57 32/78/57 61/109/57 108/120/57
f 86/97/8 15/100/8 98/121/8 97/122/8
f 74/6/8 9/19/8 85/18/8 3/15/8 1/4/8 5/3/8 7/10/8
f 71/16/58 3/15/58 85/18/58 93/17/58
f 33/82/4 18/92/4 94/123/4 95/124/4
f 2/76/1 6/83/1 33/82/1 31/77/1
f 16/93/59 18/92/59 39/91/59 37/52/59
f 11/53/60 14/39/60 43/11/60 41/12/60
f 22/13/1 24/14/1 29/68/1 27/64/1
f 27/64/1 29/68/1 72/2/1 70/1/1
f 18/92/4 33/82/4 31/77/4 16/93/4
f 37/52/1 39/91/1 14/39/1 11/53/1
f 112/37/61 97/122/61 98/121/61 110/58/61
f 111/59/62 99/24/62 47/23/62 46/116/62
f 109/118/63 100/125/63 20/43/63 51/44/63
f 108/120/64 101/50/64 102/49/64 107/117/64
f 115/126/65 104/127/65 105/128/65 113/129/65
f 114/46/66 106/119/66 103/35/66 55/34/66
f 113/129/67 105/128/67 106/119/67 114/46/67
f 107/117/68 102/49/68 100/125/68 109/118/68
f 110/58/69 98/121/69 99/24/69 111/59/69
f 67/111/70 58/26/70 104/127/70 115/126/70
f 61/109/71 54/108/71 101/50/71 108/120/71
f 64/30/72 49/31/72 97/122/72 112/37/72
f 36/88/73 81/56/73 111/59/73 46/116/73
f 82/45/74 44/99/74 113/129/74 114/46/74
f 92/98/75 42/96/75 67/111/75 115/126/75
f 13/28/76 86/97/76 97/122/76 49/31/76
f 34/74/77 90/73/77 108/120/77 107/117/77
f 15/100/8 76/21/8 99/24/8 98/121/8
f 19/48/8 77/87/8 100/125/8 102/49/8
f 44/99/78 92/98/78 115/126/78 113/129/78
f 17/94/79 87/47/79 101/50/79 54/108/79
f 40/57/80 91/36/80 112/37/80 110/58/80
f 88/60/81 25/63/81 105/128/81 104/127/81
f 23/25/82 88/60/82 104/127/82 58/26/82
f 35/42/83 80/85/83 109/118/83 51/44/83
f 25/63/84 78/69/84 106/119/84 105/128/84
f 77/87/85 20/43/85 100/125/85
l 24 96
