# Blender v3.6.2 OBJ File: 'paris_block_hero_01_.blend'
# www.blender.org
mtllib paris_block_hero_01_.mtl
o Cube
v 0.097891 1.000000 -0.800000
v 0.600000 -1.000000 -0.800000
v 0.097891 1.000000 0.800000
v 0.600000 -1.000000 0.800000
v -0.098697 1.000000 -0.800000
v -0.600000 -1.000000 -0.800000
v -0.098697 1.000000 0.800000
v -0.600000 -0.987460 0.800000
v 0.000000 -1.000000 -1.228665
v -0.000403 1.000000 0.800000
v -0.021621 -1.012904 1.105013
v -0.000403 1.000000 -0.846796
v 0.651818 0.000000 -0.813703
v -0.618704 0.000000 0.786297
v 0.651818 0.000000 0.786297
v -0.618704 0.000000 -0.813703
v -0.000323 0.008355 -1.242367
v -0.021944 -0.039982 1.153230
v 0.600000 -0.500000 -0.800000
v 0.600000 -0.500000 0.800000
v -0.600000 -0.500000 -0.800000
v 0.000000 -0.500000 -1.228665
v -0.021621 -0.509513 1.117901
v -0.600000 -0.500000 0.800000
v -0.663212 0.487504 0.800000
v 0.668605 0.522326 -0.800000
v 0.668605 0.522326 0.800000
v -0.663212 0.487504 -0.800000
v -0.000485 0.500000 -1.265432
v -0.022024 0.550687 1.209652
v -0.546733 0.750000 0.800000
v 0.545928 0.775656 -0.800000
v 0.545928 0.775656 0.800000
v -0.546733 0.750000 -0.800000
v -0.000403 0.750000 -1.191471
v -0.022024 0.737096 1.152116
v 0.600000 -0.537460 -0.800000
v 0.600000 -0.537460 0.800000
v -0.600000 -0.550000 -0.800000
v 0.000000 -0.550000 -1.228665
v -0.021621 -0.559513 1.117901
v -0.600000 -0.537460 0.800000
v -0.618404 -0.040824 0.786297
v 0.645617 -0.035578 -0.813703
v 0.645617 -0.035578 0.786297
v -0.618404 -0.040824 -0.813703
v -0.000323 -0.041645 -1.242367
v -0.021944 -0.089982 1.153230
v 0.676379 0.489097 -0.800000
v 0.676379 0.489097 0.800000
v -0.663212 0.448730 -0.800000
v -0.000485 0.450000 -1.265432
v -0.022024 0.500687 1.209652
v -0.663212 0.448730 0.800000
v -0.680644 -0.045412 0.786297
v -0.680809 0.000000 0.786297
v 0.715829 0.000000 -0.813703
v 0.716491 0.000000 0.786297
v -0.681471 0.000000 -0.813703
v -0.659544 -0.543730 0.800000
v -0.659544 -0.500000 0.800000
v -0.660206 -0.500000 -0.800000
v 0.659794 -0.500000 -0.851953
v 0.660456 -0.500000 0.800000
v -0.728561 0.443117 0.800000
v -0.728501 0.487504 0.800000
v 0.734474 0.522326 -0.800000
v 0.735136 0.522326 0.800000
v -0.729223 0.487504 -0.800000
v 0.659794 -0.543730 -0.851953
v 0.660913 -0.537460 0.800000
v -0.660000 -0.550000 -0.800000
v 0.712418 -0.042789 -0.813703
v 0.713080 -0.042789 0.786297
v -0.681306 -0.045412 -0.813703
v 0.738749 0.480711 -0.800000
v 0.739412 0.480711 0.800000
v -0.729223 0.443117 -0.800000
v -0.378271 0.886995 0.800000
v 0.377465 0.899823 -0.800000
v 0.377465 0.899823 0.800000
v -0.378271 0.886995 -0.800000
v -0.000403 0.886995 -1.138495
v -0.000403 0.886995 1.104709
v -0.448885 -1.000000 -1.114352
v -0.049550 1.000000 0.800000
v -0.321621 -1.006634 1.105013
v -0.074873 1.000000 -0.824704
v -0.475092 0.000000 -1.128055
v -0.331135 -0.028428 1.116591
v -0.321621 -0.512904 1.105013
v -0.448885 -0.500000 -1.114352
v -0.510740 0.493752 -1.147274
v -0.353429 0.527741 1.184424
v -0.409413 0.750000 -1.102628
v -0.273568 0.750000 1.132345
v -0.448885 -0.550000 -1.114352
v -0.321621 -0.556634 1.105013
v -0.330985 -0.073840 1.116591
v -0.474862 -0.045412 -1.128055
v -0.353429 0.483354 1.184424
v -0.510740 0.449365 -1.147274
v -0.283626 0.886995 -1.058673
v -0.189337 0.886995 1.075464
v 0.278379 -1.012904 1.105013
v 0.071914 1.000000 -0.824704
v 0.447130 -1.000000 -1.114352
v 0.048744 1.000000 0.800000
v 0.304126 -0.010639 1.116591
v 0.497636 0.000000 -1.128055
v 0.447130 -0.500000 -1.114352
v 0.278379 -0.519560 1.105013
v 0.312480 0.545152 1.155003
v 0.512409 0.511163 -1.147274
v 0.272762 0.762828 1.102924
v 0.406454 0.762828 -1.102628
v 0.278379 -0.563290 1.105013
v 0.447130 -0.543730 -1.114352
v 0.492888 -0.042789 -1.128055
v 0.301025 -0.053428 1.116591
v 0.518381 0.469548 -1.147274
v 0.316367 0.503537 1.155003
v 0.188531 0.893409 1.075464
v 0.280667 0.893409 -1.058673
v -0.523014 0.000000 -1.190121
v -0.000767 0.008355 -1.312705
v 0.546988 0.000000 -1.190121
v 0.491431 -0.500000 -1.176418
v -0.494186 -0.500000 -1.176418
v -0.000412 -0.500000 -1.299002
v -0.562226 0.493752 -1.210883
v -0.000946 0.500000 -1.346349
v 0.563238 0.511163 -1.210883
v -0.660412 -0.550000 -0.800000
v -0.000412 -0.550000 -1.299002
v -0.494186 -0.550000 -1.176418
v 0.491431 -0.543730 -1.176418
v -0.000767 -0.041645 -1.312705
v 0.541765 -0.042789 -1.190121
v -0.522761 -0.045412 -1.190121
v -0.000946 0.450000 -1.346349
v 0.569807 0.469548 -1.210883
v -0.562226 0.449365 -1.210883
v 0.335451 -0.010639 1.171169
v -0.023226 -0.039982 1.210936
v -0.363336 -0.028428 1.171169
v -0.352871 -0.512904 1.159591
v 0.307129 -0.519560 1.159591
v -0.022871 -0.509513 1.178806
v -0.728620 0.487504 0.800000
v 0.344640 0.545152 1.209581
v -0.023314 0.550687 1.283445
v -0.387859 0.527741 1.239002
v -0.022871 -0.559513 1.178806
v 0.307129 -0.563290 1.159591
v -0.352871 -0.556634 1.159591
v -0.023226 -0.089982 1.210936
v -0.363171 -0.073840 1.171169
v 0.332040 -0.053428 1.171169
v -0.023314 0.500687 1.283445
v -0.387859 0.483354 1.239002
v 0.348916 0.503537 1.209581
vt 0.812500 0.500000
vt 0.875000 0.500000
vt 0.875000 0.750000
vt 0.812500 0.750000
vt 0.609375 0.937500
vt 0.625000 0.937500
vt 0.625000 1.000000
vt 0.609375 1.000000
vt 0.609375 0.000000
vt 0.625000 0.000000
vt 0.625000 0.250000
vt 0.609375 0.250000
vt 0.312500 0.500000
vt 0.375000 0.500000
vt 0.375000 0.750000
vt 0.312500 0.750000
vt 0.609375 0.500000
vt 0.625000 0.500000
vt 0.625000 0.750000
vt 0.609375 0.750000
vt 0.609375 0.437500
vt 0.625000 0.437500
vt 0.609375 0.312500
vt 0.625000 0.312500
vt 0.625000 0.375000
vt 0.609375 0.375000
vt 0.187500 0.500000
vt 0.250000 0.500000
vt 0.250000 0.750000
vt 0.187500 0.750000
vt 0.609375 0.812500
vt 0.625000 0.812500
vt 0.625000 0.875000
vt 0.609375 0.875000
vt 0.687500 0.500000
vt 0.750000 0.500000
vt 0.750000 0.750000
vt 0.687500 0.750000
vt 0.500000 0.937500
vt 0.500000 1.000000
vt 0.500000 1.000000
vt 0.500000 0.937500
vt 0.431250 0.437500
vt 0.431250 0.375000
vt 0.431250 0.375000
vt 0.431250 0.437500
vt 0.437500 0.312500
vt 0.437500 0.375000
vt 0.437500 0.375000
vt 0.437500 0.312500
vt 0.562500 0.500000
vt 0.562500 0.750000
vt 0.562500 0.750000
vt 0.562500 0.500000
vt 0.500000 0.750000
vt 0.493750 0.750000
vt 0.493750 0.750000
vt 0.500000 0.750000
vt 0.562500 1.000000
vt 0.556250 1.000000
vt 0.556250 1.000000
vt 0.562500 1.000000
vt 0.493750 0.812500
vt 0.493750 0.812500
vt 0.500000 0.000000
vt 0.500000 0.250000
vt 0.500000 0.250000
vt 0.500000 0.000000
vt 0.431250 1.000000
vt 0.437500 1.000000
vt 0.437500 1.000000
vt 0.431250 1.000000
vt 0.431250 0.312500
vt 0.431250 0.250000
vt 0.431250 0.250000
vt 0.431250 0.312500
vt 0.500000 0.437500
vt 0.500000 0.500000
vt 0.500000 0.500000
vt 0.500000 0.437500
vt 0.556250 0.937500
vt 0.556250 0.937500
vt 0.437500 0.812500
vt 0.437500 0.875000
vt 0.437500 0.875000
vt 0.437500 0.812500
vt 0.437500 0.437500
vt 0.437500 0.500000
vt 0.437500 0.500000
vt 0.437500 0.437500
vt 0.562500 1.000000
vt 0.493750 0.500000
vt 0.493750 0.500000
vt 0.493750 0.937500
vt 0.493750 0.875000
vt 0.493750 0.875000
vt 0.493750 0.937500
vt 0.562500 0.812500
vt 0.593750 0.812500
vt 0.593750 0.875000
vt 0.562500 0.875000
vt 0.562500 0.312500
vt 0.593750 0.312500
vt 0.593750 0.375000
vt 0.562500 0.375000
vt 0.562500 0.437500
vt 0.593750 0.437500
vt 0.593750 0.500000
vt 0.593750 0.750000
vt 0.562500 0.000000
vt 0.593750 0.000000
vt 0.593750 0.250000
vt 0.562500 0.250000
vt 0.562500 0.937500
vt 0.593750 0.937500
vt 0.593750 1.000000
vt 0.375000 0.812500
vt 0.431250 0.812500
vt 0.431250 0.875000
vt 0.375000 0.875000
vt 0.375000 0.312500
vt 0.375000 0.375000
vt 0.375000 0.437500
vt 0.431250 0.500000
vt 0.431250 0.750000
vt 0.375000 0.000000
vt 0.431250 0.000000
vt 0.375000 0.250000
vt 0.375000 0.937500
vt 0.431250 0.937500
vt 0.375000 1.000000
vt 0.437500 0.937500
vt 0.493750 1.000000
vt 0.437500 0.000000
vt 0.493750 0.000000
vt 0.493750 0.250000
vt 0.437500 0.250000
vt 0.437500 0.750000
vt 0.493750 0.437500
vt 0.493750 0.312500
vt 0.493750 0.375000
vt 0.556250 0.000000
vt 0.556250 0.250000
vt 0.556250 0.500000
vt 0.556250 0.750000
vt 0.556250 0.437500
vt 0.500000 0.312500
vt 0.556250 0.312500
vt 0.556250 0.375000
vt 0.500000 0.375000
vt 0.500000 0.812500
vt 0.556250 0.812500
vt 0.556250 0.875000
vt 0.500000 0.875000
vt 0.493750 0.000000
vt 0.493750 0.250000
vt 0.431250 0.000000
vt 0.437500 0.000000
vt 0.437500 0.250000
vt 0.431250 0.250000
vt 0.431250 0.500000
vt 0.437500 0.750000
vt 0.431250 0.750000
vt 0.556250 0.500000
vt 0.556250 0.750000
vt 0.556250 0.000000
vt 0.562500 0.000000
vt 0.562500 0.250000
vt 0.556250 0.250000
vt 0.493750 1.000000
vt 0.500000 0.375000
vt 0.500000 0.312500
vt 0.431250 0.875000
vt 0.431250 0.937500
vt 0.562500 0.937500
vt 0.125000 0.500000
vt 0.125000 0.750000
vt 0.562500 0.437500
vt 0.562500 0.375000
vt 0.431250 0.812500
vt 0.500000 0.875000
vt 0.500000 0.812500
vt 0.493750 0.312500
vt 0.493750 0.375000
vt 0.493750 0.437500
vt 0.556250 0.312500
vt 0.562500 0.312500
vt 0.556250 0.375000
vt 0.556250 0.437500
vt 0.437500 0.937500
vt 0.556250 0.812500
vt 0.562500 0.812500
vt 0.562500 0.875000
vt 0.556250 0.875000
vn 0.0000 1.0000 0.0000
vn -0.3130 0.9104 0.2705
vn -0.3747 0.9271 0.0000
vn 0.0272 -0.9996 -0.0022
vn 0.3373 0.9414 0.0000
vn 0.3192 0.9342 -0.1594
vn -0.1021 0.9280 -0.3584
vn -0.0090 -1.0000 -0.0041
vn 0.0178 0.9365 0.3502
vn 0.0308 0.9981 0.0533
vn 0.0123 -0.9999 0.0041
vn 0.0000 0.0000 1.0000
vn 0.0000 0.0000 -1.0000
vn -0.0326 -0.9968 -0.0728
vn 0.0000 -1.0000 -0.0000
vn 0.0738 -0.9968 0.0323
vn 0.0315 0.9995 -0.0075
vn -0.0480 -0.9987 -0.0143
vn 0.1481 0.2725 0.9507
vn -0.2136 0.2632 -0.9408
vn 0.8252 0.4081 -0.3905
vn 0.9000 0.4358 0.0000
vn -0.9141 0.4056 0.0000
vn -0.7338 0.3592 0.5766
vn 0.0214 -0.0143 0.9997
vn -0.2468 0.0000 -0.9691
vn 0.8993 0.0000 -0.4373
vn 1.0000 0.0000 0.0000
vn -1.0000 0.0000 0.0000
vn -0.7386 0.0000 0.6741
vn -0.7474 -0.0215 0.6641
vn -0.9992 -0.0400 0.0000
vn 0.9952 -0.0978 0.0000
vn 0.8952 -0.1017 -0.4340
vn -0.2400 -0.0360 -0.9701
vn 0.0814 -0.0548 0.9952
vn -0.7624 -0.1072 0.6381
vn -0.9951 -0.0987 0.0000
vn 0.9987 -0.0502 0.0000
vn 0.9040 -0.0452 -0.4252
vn -0.2289 -0.0553 -0.9719
vn 0.1398 -0.0903 0.9861
vn 0.9968 -0.0795 -0.0004
vn -1.0000 -0.0036 0.0004
vn -1.0000 -0.0022 0.0004
vn 1.0000 0.0056 -0.0005
vn 0.9948 0.1022 -0.0004
vn -1.0000 0.0007 0.0004
vn -0.6559 0.0000 -0.7549
vn 0.0851 -0.9964 -0.0000
vn -0.0510 -0.9987 0.0019
vn -0.1326 -0.9912 0.0000
vn 0.0524 -0.9986 0.0059
vn 0.0731 -0.9973 -0.0000
vn -0.1068 -0.9943 0.0000
vn 0.1351 0.2836 0.9494
vn -0.2157 0.4122 -0.8852
vn 0.6041 0.7461 -0.2799
vn 0.5933 0.8050 0.0000
vn -0.6309 0.7758 0.0000
vn -0.6036 0.6520 0.4589
vn -0.0920 0.3700 0.9245
vn -0.6362 0.7254 -0.2629
vn -0.9095 -0.0837 -0.4071
vn -0.0944 -0.1187 0.9884
vn -0.9042 -0.0566 -0.4234
vn -0.0821 -0.0553 0.9951
vn -0.0217 -0.0143 0.9997
vn -0.9013 0.0000 -0.4333
vn -0.0787 0.2726 0.9589
vn -0.8438 0.3863 -0.3725
vn -0.0154 0.9999 0.0056
vn -0.0090 -1.0000 -0.0025
vn -0.0372 0.9970 -0.0680
vn -0.0445 -0.9990 0.0030
vn -0.3558 0.9227 -0.1487
vn -0.0434 0.9344 0.3535
vn 0.2054 0.4173 -0.8853
vn 0.5905 0.6389 0.4930
vn 0.6941 -0.0627 0.7171
vn 0.2231 -0.0502 -0.9735
vn 0.6907 -0.0490 0.7214
vn 0.2360 -0.0408 -0.9709
vn 0.2477 0.0000 -0.9688
vn 0.6881 0.0000 0.7256
vn 0.2051 0.2660 -0.9419
vn 0.6894 0.3101 0.6547
vn -0.0192 0.9998 -0.0067
vn 0.0292 -0.9984 -0.0479
vn -0.0130 0.9996 -0.0238
vn -0.0829 0.9963 0.0222
vn 0.2811 0.9225 0.2645
vn 0.0855 0.9310 -0.3550
vn 0.0009 -1.0000 -0.0056
vn -0.2286 -0.0006 -0.9735
vn 0.9078 -0.0916 -0.4094
vn 0.8876 0.0000 -0.4606
vn -0.2409 0.0000 -0.9705
vn -0.2346 0.0000 -0.9721
vn 0.9162 0.1194 -0.3825
vn -0.9264 0.0000 -0.3765
vn -0.9149 0.0019 -0.4038
vn -0.9216 -0.0042 -0.3881
vn 0.2317 0.0166 -0.9726
vn 0.2418 0.0000 -0.9703
vn 0.2193 -0.0123 -0.9756
vn -0.0020 -1.0000 -0.0007
vn 0.0303 -0.9993 0.0199
vn 0.0331 -0.9994 0.0117
vn 0.0429 -0.9990 0.0090
vn -0.0410 -0.9975 0.0581
vn 0.0147 0.9999 0.0054
vn 0.0011 -1.0000 -0.0004
vn -0.0453 -0.9985 0.0316
vn -0.0319 -0.9992 0.0258
vn 0.0070 -1.0000 -0.0025
vn -0.0107 0.9999 0.0039
vn -0.0073 0.9999 0.0134
vn 0.1111 -0.0041 0.9938
vn -0.7715 -0.0028 0.6362
vn -0.7609 0.0000 0.6489
vn 0.0581 0.0000 0.9983
vn 0.1957 0.0091 0.9806
vn -0.7900 -0.0005 0.6132
vn -0.1210 0.0000 0.9927
vn -0.0581 0.0000 0.9983
vn -0.1162 -0.0002 0.9932
vn 0.7238 0.0744 0.6860
vn 0.7129 0.0040 0.7012
vn 0.7103 -0.0566 0.7016
vn -0.0007 -0.9964 -0.0850
vn 0.0484 -0.9987 0.0135
vn -0.0738 -0.9970 -0.0239
vn -0.0107 0.9998 0.0188
vn -0.0118 -0.9999 0.0028
vn 0.0344 0.9994 0.0102
vn -0.0106 0.9999 -0.0030
vn 0.0077 -1.0000 -0.0019
vn -0.0222 0.9991 0.0363
vn 0.1041 -0.9942 -0.0276
vn 0.0151 0.9999 -0.0036
vn 0.0214 0.9990 -0.0387
vn 0.0261 -0.9971 -0.0711
vn -0.0640 0.9978 -0.0178
vn 0.0153 0.9996 0.0254
usemtl Material
s off
f 88/1/1 5/2/1 7/3/1 86/4/1
f 104/5/2 86/6/2 7/7/2 79/8/2
f 79/9/3 7/10/3 5/11/3 82/12/3
f 107/13/4 2/14/4 4/15/4 105/16/4
f 80/17/5 1/18/5 3/19/5 81/20/5
f 124/21/6 106/22/6 1/18/6 80/17/6
f 103/23/7 88/24/7 12/25/7 83/26/7
f 85/27/8 9/28/8 11/29/8 87/30/8
f 123/31/9 108/32/9 10/33/9 84/34/9
f 106/35/1 12/36/1 10/37/1 108/38/1
f 90/39/10 14/40/10 56/41/10 146/42/10
f 118/43/11 40/44/11 135/45/11 137/46/11
f 92/47/1 22/48/1 130/49/1 129/50/1
f 26/51/1 27/52/1 68/53/1 67/54/1
f 15/55/12 45/56/12 74/57/12 58/58/12
f 25/59/13 54/60/13 65/61/13 150/62/13
f 120/63/14 45/56/14 74/57/14 159/64/14
f 14/65/1 16/66/1 59/67/1 56/68/1
f 42/69/12 24/70/12 61/71/12 60/72/12
f 97/73/15 39/74/15 134/75/15 136/76/15
f 110/77/1 13/78/1 57/79/1 127/80/1
f 54/60/16 101/81/16 161/82/16 65/61/16
f 112/83/17 23/84/17 149/85/17 148/86/17
f 111/87/1 19/88/1 63/89/1 128/90/1
f 54/60/12 25/59/12 66/91/12 65/61/12
f 44/92/13 13/78/13 57/79/13 73/93/13
f 99/94/18 48/95/18 157/96/18 158/97/18
f 113/98/19 115/99/19 36/100/19 30/101/19
f 93/102/20 95/103/20 35/104/20 29/105/20
f 114/106/21 116/107/21 32/108/21 26/51/21
f 26/51/22 32/108/22 33/109/22 27/52/22
f 25/110/23 31/111/23 34/112/23 28/113/23
f 94/114/24 96/115/24 31/116/24 25/59/24
f 105/117/25 117/118/25 41/119/25 11/120/25
f 85/121/26 97/73/26 40/44/26 9/122/26
f 107/123/27 118/43/27 37/124/27 2/14/27
f 2/14/28 37/124/28 38/125/28 4/15/28
f 8/126/29 42/127/29 39/74/29 6/128/29
f 87/129/30 98/130/30 42/69/30 8/131/30
f 91/132/31 99/94/31 43/133/31 24/70/31
f 24/134/32 43/135/32 46/136/32 21/137/32
f 19/88/33 44/92/33 45/56/33 20/138/33
f 111/87/34 119/139/34 44/92/34 19/88/34
f 92/47/35 100/140/35 47/141/35 22/48/35
f 112/83/36 120/63/36 48/95/36 23/84/36
f 90/39/37 101/81/37 54/60/37 14/40/37
f 14/65/38 54/142/38 51/143/38 16/66/38
f 13/78/39 49/144/39 50/145/39 15/55/39
f 110/77/40 121/146/40 49/144/40 13/78/40
f 89/147/41 102/148/41 52/149/41 17/150/41
f 109/151/42 122/152/42 53/153/42 18/154/42
f 73/93/43 57/79/43 58/58/43 74/57/43
f 55/155/44 56/68/44 59/67/44 75/156/44
f 60/157/45 61/158/45 62/159/45 72/160/45
f 70/161/46 63/89/46 64/162/46 71/163/46
f 76/164/47 67/54/47 68/53/47 77/165/47
f 65/166/48 66/167/48 69/168/48 78/169/48
f 37/124/49 19/88/49 63/89/49 70/161/49
f 16/66/13 46/136/13 75/156/13 59/67/13
f 24/134/1 21/137/1 62/159/1 61/158/1
f 25/110/1 28/113/1 69/168/1 66/167/1
f 20/138/12 38/125/12 71/163/12 64/162/12
f 51/143/50 54/142/50 65/166/50 78/169/50
f 19/88/1 20/138/1 64/162/1 63/89/1
f 38/125/51 37/124/51 70/161/51 71/163/51
f 49/144/13 26/51/13 67/54/13 76/164/13
f 21/137/13 39/74/13 72/160/13 62/159/13
f 50/145/52 49/144/52 76/164/52 77/165/52
f 39/74/53 42/127/53 60/157/53 72/160/53
f 27/52/12 50/145/12 77/165/12 68/53/12
f 28/113/13 51/143/13 78/169/13 69/168/13
f 46/136/54 43/135/54 55/155/54 75/156/54
f 43/133/12 14/40/12 56/41/12 55/170/12
f 45/56/55 44/92/55 73/93/55 74/57/55
f 13/78/1 15/55/1 58/58/1 57/79/1
f 115/99/56 123/31/56 84/34/56 36/100/56
f 95/103/57 103/23/57 83/26/57 35/104/57
f 116/107/58 124/21/58 80/17/58 32/108/58
f 32/108/59 80/17/59 81/20/59 33/109/59
f 31/111/60 79/9/60 82/12/60 34/112/60
f 96/115/61 104/5/61 79/8/61 31/116/61
f 36/100/62 84/34/62 104/5/62 96/115/62
f 34/112/63 82/12/63 103/23/63 95/103/63
f 16/66/64 51/143/64 102/148/64 89/147/64
f 18/154/65 53/153/65 101/81/65 90/39/65
f 21/137/66 46/136/66 100/140/66 92/47/66
f 23/84/67 48/95/67 99/94/67 91/132/67
f 11/120/68 41/119/68 98/130/68 87/129/68
f 6/128/69 39/74/69 97/73/69 85/121/69
f 30/101/70 36/100/70 96/115/70 94/114/70
f 28/113/71 34/112/71 95/103/71 93/102/71
f 89/147/72 17/150/72 126/171/72 125/172/72
f 98/130/73 41/119/73 154/173/73 156/174/73
f 94/114/74 25/59/74 150/62/74 153/175/74
f 6/176/75 85/27/75 87/30/75 8/177/75
f 82/12/76 5/11/76 88/24/76 103/23/76
f 84/34/77 10/33/77 86/6/77 104/5/77
f 12/36/1 88/1/1 86/4/1 10/37/1
f 35/104/78 83/26/78 124/21/78 116/107/78
f 33/109/79 81/20/79 123/31/79 115/99/79
f 15/55/80 50/145/80 122/152/80 109/151/80
f 17/150/81 52/149/81 121/146/81 110/77/81
f 20/138/82 45/56/82 120/63/82 112/83/82
f 22/48/83 47/141/83 119/139/83 111/87/83
f 9/122/84 40/44/84 118/43/84 107/123/84
f 4/15/85 38/125/85 117/118/85 105/117/85
f 29/105/86 35/104/86 116/107/86 114/106/86
f 27/52/87 33/109/87 115/99/87 113/98/87
f 29/105/88 114/106/88 133/178/88 132/179/88
f 117/118/89 38/125/89 71/163/89 155/180/89
f 114/106/90 26/51/90 67/54/90 133/178/90
f 109/151/91 18/154/91 145/181/91 144/182/91
f 1/18/1 106/35/1 108/38/1 3/19/1
f 81/20/92 3/19/92 108/32/92 123/31/92
f 83/26/93 12/25/93 106/22/93 124/21/93
f 9/28/94 107/13/94 105/16/94 11/29/94
f 140/183/95 125/172/95 126/171/95 138/184/95
f 139/185/96 127/80/96 57/79/96 73/93/96
f 137/46/97 128/90/97 63/89/97 70/161/97
f 136/76/98 129/50/98 130/49/98 135/45/98
f 143/186/99 131/187/99 132/179/99 141/188/99
f 142/189/100 133/178/100 67/54/100 76/164/100
f 78/169/101 69/168/101 131/187/101 143/186/101
f 134/75/102 62/159/102 129/50/102 136/76/102
f 75/156/103 59/67/103 125/172/103 140/183/103
f 141/188/104 132/179/104 133/178/104 142/189/104
f 135/45/105 130/49/105 128/90/105 137/46/105
f 138/184/106 126/171/106 127/80/106 139/185/106
f 39/74/12 21/137/12 62/159/12 134/75/12
f 119/139/107 47/141/107 138/184/107 139/185/107
f 100/140/108 46/136/108 75/156/108 140/183/108
f 121/146/109 52/149/109 141/188/109 142/189/109
f 102/148/110 51/143/110 78/169/110 143/186/110
f 16/66/1 89/147/1 125/172/1 59/67/1
f 49/144/111 121/146/111 142/189/111 76/164/111
f 17/150/112 110/77/112 127/80/112 126/171/112
f 40/44/15 97/73/15 136/76/15 135/45/15
f 52/149/113 102/148/113 143/186/113 141/188/113
f 44/92/114 119/139/114 139/185/114 73/93/114
f 22/48/1 111/87/1 128/90/1 130/49/1
f 37/124/115 118/43/115 137/46/115 70/161/115
f 47/141/116 100/140/116 140/183/116 138/184/116
f 21/137/1 92/47/1 129/50/1 62/159/1
f 93/102/117 29/105/117 132/179/117 131/187/117
f 28/113/118 93/102/118 131/187/118 69/168/118
f 159/64/119 144/182/119 145/181/119 157/96/119
f 158/97/120 146/42/120 56/41/120 55/170/120
f 156/174/121 147/190/121 61/71/121 60/72/121
f 155/180/122 148/86/122 149/85/122 154/173/122
f 162/191/123 151/192/123 152/193/123 160/194/123
f 161/82/124 153/175/124 150/62/124 65/61/124
f 160/194/125 152/193/125 153/175/125 161/82/125
f 154/173/126 149/85/126 147/190/126 156/174/126
f 157/96/127 145/181/127 146/42/127 158/97/127
f 77/165/128 68/53/128 151/192/128 162/191/128
f 71/163/129 64/162/129 148/86/129 155/180/129
f 74/57/130 58/58/130 144/182/130 159/64/130
f 43/133/131 99/94/131 158/97/131 55/170/131
f 101/81/132 53/153/132 160/194/132 161/82/132
f 122/152/133 50/145/133 77/165/133 162/191/133
f 15/55/134 109/151/134 144/182/134 58/58/134
f 41/119/135 117/118/135 155/180/135 154/173/135
f 18/154/136 90/39/136 146/42/136 145/181/136
f 23/84/137 91/132/137 147/190/137 149/85/137
f 53/153/138 122/152/138 162/191/138 160/194/138
f 20/138/139 112/83/139 148/86/139 64/162/139
f 48/95/140 120/63/140 159/64/140 157/96/140
f 113/98/141 30/101/141 152/193/141 151/192/141
f 27/52/142 113/98/142 151/192/142 68/53/142
f 42/69/143 98/130/143 156/174/143 60/72/143
f 30/101/144 94/114/144 153/175/144 152/193/144
f 91/132/145 24/70/145 61/71/145 147/190/145
